# Blender 4.3.2
# www.blender.org
mtllib amogus.mtl
o Icosphere
v 0.000000 -1.043227 -0.000000
v 0.651247 -0.490447 0.525725
v -0.248749 -0.490447 0.850649
v -0.804984 -0.490443 -0.000000
v -0.248749 -0.490447 -0.850649
v 0.651247 -0.490447 -0.525725
v 0.248749 1.091300 0.850649
v -0.651247 1.091298 0.525725
v -0.651247 1.091298 -0.525725
v 0.248749 1.091299 -0.850649
v 0.804984 1.091295 -0.000000
v 0.000000 1.644079 -0.000000
v -0.146210 -0.893881 0.499995
v 0.382790 -0.893881 0.309011
v 0.236582 -0.568965 0.809012
v 0.765583 -0.568963 -0.000000
v 0.382790 -0.893881 -0.309011
v -0.473157 -0.893879 -0.000000
v -0.619370 -0.568963 0.499997
v -0.146210 -0.893881 -0.499995
v -0.619370 -0.568963 -0.499997
v 0.236582 -0.568965 -0.809012
v 0.855952 0.144079 0.309013
v 0.855952 0.144079 -0.309013
v 0.000000 0.144079 1.000000
v 0.529007 0.144079 0.809017
v -0.855952 0.144079 0.309013
v -0.529007 0.144079 0.809017
v -0.529007 0.144079 -0.809017
v -0.855952 0.144079 -0.309013
v 0.529007 0.144079 -0.809017
v 0.000000 0.144079 -1.000000
v 0.619370 1.169815 0.499997
v -0.236582 1.169817 0.809012
v -0.765583 1.169815 -0.000000
v -0.236582 1.169817 -0.809012
v 0.619370 1.169815 -0.499997
v 0.146210 1.494733 0.499995
v 0.473157 1.494730 -0.000000
v -0.382790 1.494733 0.309011
v -0.382790 1.494733 -0.309011
v 0.146210 1.494733 -0.499995
v 0.570489 -0.314376 -0.000000
v 1.054094 -0.037986 0.350475
v 0.385772 -0.037986 0.567085
v 0.385772 -0.037986 -0.567085
v 1.054094 -0.037986 -0.350475
v 0.755206 0.909234 0.567085
v 0.755206 0.909234 -0.567085
v 1.168257 0.909232 -0.000000
v 0.461916 -0.239703 0.333322
v 0.854743 -0.239703 0.206002
v 0.746171 -0.077245 0.539328
v 1.138999 -0.077244 -0.000000
v 0.854743 -0.239703 -0.206002
v 0.461916 -0.239703 -0.333322
v 0.746171 -0.077245 -0.539328
v 1.206105 0.435624 0.206003
v 1.206105 0.435624 -0.206003
v 0.570489 0.435624 0.666650
v 0.963321 0.435624 0.539331
v 0.963321 0.435624 -0.539331
v 0.570489 0.435624 -0.666650
v 1.030423 0.948492 0.333323
v 0.394807 0.948493 0.539328
v 0.394807 0.948493 -0.539328
v 1.030423 0.948492 -0.333323
v 0.662966 1.110951 0.333322
v 0.921847 1.110950 -0.000000
v 0.227107 -1.361567 0.234999
v 0.000000 -1.504635 0.400000
v 0.662966 1.110951 -0.333322
v -0.086746 -1.361567 0.133020
v 0.280720 -0.688200 0.400000
v -0.086746 -1.361567 0.666980
v -0.280720 -1.361565 0.400000
v 0.227107 -1.361567 0.565001
v 0.086746 -0.688199 0.133020
v -0.227107 -0.688199 0.234999
v -0.227107 -0.688199 0.565001
v 0.086746 -0.688199 0.666980
v -0.050987 -1.488186 0.556926
v 0.133489 -1.488186 0.496985
v 0.082503 -1.386210 0.653912
v 0.266980 -1.386209 0.400000
v 0.133489 -1.488186 0.303015
v -0.165003 -1.488186 0.400000
v -0.215991 -1.386209 0.556926
v -0.050987 -1.488186 0.243074
v -0.215991 -1.386209 0.243074
v 0.082503 -1.386210 0.146088
v 0.298494 -1.043980 0.496985
v 0.298494 -1.043980 0.303015
v 0.000000 -1.043980 0.713855
v 0.184479 -1.043980 0.653914
v -0.298494 -1.043980 0.496985
v -0.184479 -1.043980 0.653914
v -0.184479 -1.043980 0.146086
v -0.298494 -1.043980 0.303015
v 0.184479 -1.043980 0.146086
v 0.000000 -1.043980 0.086145
v 0.215991 -0.663556 0.556926
v -0.082503 -0.663556 0.653912
v -0.266980 -0.663556 0.400000
v -0.082503 -0.663556 0.146088
v 0.215991 -0.663556 0.243074
v 0.227107 -1.361567 -0.565001
v 0.000000 -1.504635 -0.400000
v -0.086746 -1.361567 -0.666980
v 0.280720 -0.688200 -0.400000
v -0.086746 -1.361567 -0.133020
v -0.280720 -1.361565 -0.400000
v 0.227107 -1.361567 -0.234999
v 0.086746 -0.688199 -0.666980
v -0.227107 -0.688199 -0.565001
v -0.227107 -0.688199 -0.234999
v 0.086746 -0.688199 -0.133020
v -0.050987 -1.488186 -0.243074
v 0.133489 -1.488186 -0.303015
v 0.082503 -1.386210 -0.146088
v 0.266980 -1.386209 -0.400000
v 0.133489 -1.488186 -0.496985
v -0.165003 -1.488186 -0.400000
v -0.215991 -1.386209 -0.243074
v -0.050987 -1.488186 -0.556926
v -0.215991 -1.386209 -0.556926
v 0.082503 -1.386210 -0.653912
v 0.298494 -1.043980 -0.303015
v 0.298494 -1.043980 -0.496985
v 0.000000 -1.043980 -0.086145
v 0.184479 -1.043980 -0.146086
v -0.298494 -1.043980 -0.303015
v -0.184479 -1.043980 -0.146086
v -0.184479 -1.043980 -0.653914
v -0.298494 -1.043980 -0.496985
v 0.184479 -1.043980 -0.653914
v 0.000000 -1.043980 -0.713855
v 0.215991 -0.663556 -0.243074
v -0.082503 -0.663556 -0.146088
v -0.266980 -0.663556 -0.400000
v -0.082503 -0.663556 -0.653912
v 0.215991 -0.663556 -0.556926
vn 0.0002 -1.0000 -0.0000
vn 0.7624 -0.3983 0.5100
vn -0.3025 -0.4131 0.8590
vn -0.9210 -0.3895 -0.0000
vn -0.3025 -0.4131 -0.8590
vn 0.7624 -0.3983 -0.5100
vn 0.3060 0.3833 0.8715
vn -0.7714 0.3706 0.5174
vn -0.7714 0.3706 -0.5174
vn 0.3060 0.3833 -0.8715
vn 0.9318 0.3629 -0.0000
vn -0.0002 1.0000 -0.0000
vn -0.1753 -0.8486 0.4991
vn 0.4545 -0.8369 0.3052
vn 0.2894 -0.4947 0.8195
vn 0.8829 -0.4695 -0.0000
vn 0.4545 -0.8369 -0.3052
vn -0.5583 -0.8297 -0.0000
vn -0.7302 -0.4788 0.4873
vn -0.1753 -0.8486 -0.4991
vn -0.7302 -0.4788 -0.4873
vn 0.2894 -0.4947 -0.8195
vn 0.9583 -0.0239 0.2849
vn 0.9583 -0.0239 -0.2849
vn 0.0014 -0.0260 0.9997
vn 0.6179 -0.0262 0.7859
vn -0.9575 -0.0248 0.2874
vn -0.6201 -0.0245 0.7842
vn -0.6201 -0.0245 -0.7842
vn -0.9575 -0.0248 -0.2874
vn 0.6179 -0.0262 -0.7859
vn 0.0014 -0.0260 -0.9997
vn 0.7408 0.4544 0.4948
vn -0.2939 0.4687 0.8330
vn -0.8951 0.4458 -0.0000
vn -0.2939 0.4687 -0.8330
vn 0.7408 0.4544 -0.4948
vn 0.1753 0.8486 0.4991
vn 0.5583 0.8297 -0.0000
vn -0.4545 0.8369 0.3052
vn -0.4545 0.8369 -0.3052
vn 0.1753 0.8486 -0.4991
vn 0.1402 -0.9901 -0.0000
vn 0.7154 -0.4659 0.5207
vn 0.0114 -0.5056 0.8627
vn 0.0114 -0.5056 -0.8627
vn 0.7154 -0.4659 -0.5207
vn 0.2739 0.4691 0.8396
vn 0.2739 0.4691 -0.8396
vn 0.8847 0.4661 -0.0000
vn 0.0653 -0.8798 0.4708
vn 0.3528 -0.8997 0.2569
vn 0.2588 -0.5443 0.7980
vn 0.8386 -0.5448 -0.0000
vn 0.3528 -0.8997 -0.2569
vn 0.0653 -0.8798 -0.4708
vn 0.2588 -0.5443 -0.7980
vn 0.9509 -0.0000 0.3096
vn 0.9509 -0.0000 -0.3096
vn 0.1984 -0.0170 0.9800
vn 0.5870 -0.0000 0.8096
vn 0.5870 -0.0000 -0.8096
vn 0.1984 -0.0170 -0.9800
vn 0.6746 0.5483 0.4942
vn -0.0139 0.4890 0.8722
vn -0.0139 0.4890 -0.8722
vn 0.6746 0.5483 -0.4942
vn 0.2137 0.8767 0.4310
vn 0.3757 0.9267 -0.0000
vn 0.7469 -0.3843 -0.5426
vn -0.0000 -1.0000 -0.0000
vn 0.2137 0.8767 -0.4310
vn -0.2853 -0.3843 -0.8780
vn 0.9905 0.1373 -0.0000
vn -0.2853 -0.3843 0.8780
vn -0.9232 -0.3843 -0.0000
vn 0.7469 -0.3843 0.5426
vn 0.3061 0.1373 -0.9421
vn -0.8014 0.1373 -0.5822
vn -0.8014 0.1373 0.5822
vn 0.3061 0.1373 0.9421
vn -0.1475 -0.8788 0.4538
vn 0.3860 -0.8788 0.2805
vn 0.2730 -0.4685 0.8402
vn 0.8835 -0.4685 -0.0000
vn 0.3860 -0.8788 -0.2805
vn -0.4772 -0.8788 -0.0000
vn -0.7147 -0.4685 0.5193
vn -0.1475 -0.8788 -0.4538
vn -0.7147 -0.4685 -0.5193
vn 0.2730 -0.4685 -0.8402
vn 0.9512 -0.0053 0.3086
vn 0.9512 -0.0053 -0.3086
vn 0.0004 -0.0053 1.0000
vn 0.5874 -0.0053 0.8093
vn -0.9509 -0.0053 0.3094
vn -0.5881 -0.0053 0.8088
vn -0.5881 -0.0053 -0.8088
vn -0.9509 -0.0053 -0.3094
vn 0.5874 -0.0053 -0.8093
vn 0.0004 -0.0053 -1.0000
vn 0.8014 0.1370 0.5822
vn -0.3061 0.1370 0.9421
vn -0.9906 0.1370 -0.0000
vn -0.3061 0.1370 -0.9421
vn 0.8014 0.1370 -0.5822
vt 1.002271 0.083074
vt 0.845686 0.236138
vt 0.661322 0.152364
vt 0.810060 0.427205
vt 0.915052 0.433691
vt 0.356351 0.132135
vt 0.002271 0.083074
vt 0.159350 0.244731
vt 0.012591 0.282959
vt 0.834760 0.667754
vt 0.623396 0.341482
vt 0.720796 0.352918
vt 0.647081 0.560678
vt 0.396029 0.326630
vt 0.517584 0.283305
vt 0.464761 0.536589
vt 0.193113 0.431679
vt 0.280201 0.346374
vt 0.265949 0.608719
vt 0.015485 0.483020
vt 0.105072 0.439339
vt 0.075654 0.690467
vt 0.733369 0.609027
vt 0.560728 0.534691
vt 0.362678 0.565900
vt 0.174588 0.652707
vt 1.015485 0.483020
vt 1.075654 0.690467
vt 0.957102 0.702737
vt 0.651864 0.772310
vt 0.721881 0.840458
vt 0.609561 0.856398
vt 0.510889 0.733383
vt 0.579983 0.755314
vt 0.507743 0.825451
vt 0.351857 0.778273
vt 0.435515 0.763220
vt 0.394020 0.859048
vt 0.173280 0.864483
vt 0.275716 0.831405
vt 0.283333 0.937572
vt 0.845528 0.887188
vt 1.032231 0.918748
vt 0.705597 0.951894
vt 0.499019 0.914354
vt 0.032231 0.918748
vt 1.012591 0.282959
vt 0.908945 0.516276
vt 0.867662 0.549044
vt 0.806940 0.516466
vt 0.847835 0.601713
vt 0.901846 0.608949
vt 1.008124 0.571294
vt 0.943976 0.571132
vt 0.859982 0.714798
vt 0.740569 0.578983
vt 0.799427 0.575870
vt 0.737360 0.705739
vt 0.955508 0.632601
vt 1.008328 0.632524
vt 0.986589 0.754906
vt 0.799686 0.703189
vt 0.921506 0.732795
vt 0.751417 0.793563
vt 0.811664 0.805924
vt 0.751031 0.861564
vt 1.016310 0.863014
vt 1.108369 0.909338
vt 0.963990 0.922377
vt 0.875380 0.811121
vt 0.938379 0.842839
vt 0.854858 0.870928
vt 0.806674 0.084365
vt 0.740653 0.057401
vt 0.869611 0.058167
vt 0.941416 0.046441
vt 0.653038 0.008020
vt 0.938029 0.070011
vt 0.805100 0.122808
vt 0.748057 0.101201
vt 0.797159 0.158973
vt 0.840963 0.148368
vt 0.801000 0.205444
vt 0.686859 0.819452
vt 0.058917 0.784345
vt 0.108369 0.909338
vt 0.016310 0.863014
vt 1.058917 0.784345
vt 0.008328 0.632524
vt 0.070421 0.658644
vt 0.008124 0.571294
vt 0.751865 0.021380
vt 0.883963 0.131354
vt 0.895285 0.137642
vt 0.848248 0.184028
vt 0.711292 0.128553
vt 0.707030 0.190497
vt 0.659841 0.162602
vt 0.918642 0.091738
vt 0.753999 0.205897
vt 0.643143 0.058112
vt 0.678725 0.093715
vt 0.612731 0.123155
vt 0.756517 0.144617
vt 0.862951 0.105202
vt 0.568744 0.071026
vt 0.823628 0.223586
vt 0.793032 0.266869
vt 0.854142 0.129130
vt 0.687781 0.053267
vt 0.555898 0.112627
vt 0.584740 0.186156
vt 0.621006 0.224152
vt 0.663913 0.259991
vt 0.707862 0.274571
vt 0.748016 0.284807
vt 0.087989 0.157964
vt 0.128523 0.145191
vt 0.112088 0.186027
vt 0.128701 0.218040
vt 0.160336 0.254970
vt 0.126083 0.280006
vt 0.047223 0.158074
vt 0.081241 0.120549
vt 0.019589 0.171103
vt 0.040654 0.203861
vt 0.023767 0.233313
vt 0.150361 0.185756
vt 0.067273 0.229164
vt 0.089785 0.286599
vt 0.054276 0.272054
vt 0.079227 0.094630
vt 0.044843 0.105091
vt 0.160712 0.100381
vt 0.097610 0.226300
vt 0.008642 0.171196
vt 0.166908 0.150273
vt 0.143050 0.110891
vt 0.201064 0.156686
vt 0.028100 0.125716
vt 0.072785 0.193001
vt 0.188688 0.213097
vt 0.086114 0.365693
vt 0.050511 0.334102
vt 0.120465 0.363554
vt 0.157057 0.352339
vt 0.190359 0.314401
vt 0.214436 0.271240
vt 0.220274 0.193858
vt 0.149721 0.145118
vt 0.039874 0.181667
vt 0.033035 0.280683
s 1
usemtl Body
f 1/1/1 14/2/14 13/3/13
f 2/4/2 14/2/14 16/5/16
f 1/1/1 13/3/13 18/6/18
f 1/7/1 18/6/18 20/8/20
f 1/7/1 20/8/20 17/9/17
f 2/4/2 16/5/16 23/10/23
f 3/11/3 15/12/15 25/13/25
f 4/14/4 19/15/19 27/16/27
f 5/17/5 21/18/21 29/19/29
f 6/20/6 22/21/22 31/22/31
f 2/4/2 23/10/23 26/23/26
f 3/11/3 25/13/25 28/24/28
f 4/14/4 27/16/27 30/25/30
f 5/17/5 29/19/29 32/26/32
f 6/27/6 31/28/31 24/29/24
f 7/30/7 33/31/33 38/32/38
f 8/33/8 34/34/34 40/35/40
f 9/36/9 35/37/35 41/38/41
f 10/39/10 36/40/36 42/41/42
f 11/42/11 37/43/37 39/44/39
f 39/44/39 42/41/42 12/45/12
f 39/44/39 37/46/37 42/41/42
f 37/46/37 10/39/10 42/41/42
f 42/41/42 41/38/41 12/45/12
f 42/41/42 36/40/36 41/38/41
f 36/40/36 9/36/9 41/38/41
f 41/38/41 40/35/40 12/45/12
f 41/38/41 35/37/35 40/35/40
f 35/37/35 8/33/8 40/35/40
f 40/35/40 38/32/38 12/45/12
f 40/35/40 34/34/34 38/32/38
f 34/34/34 7/30/7 38/32/38
f 38/32/38 39/44/39 12/45/12
f 38/32/38 33/31/33 39/44/39
f 33/31/33 11/42/11 39/44/39
f 24/29/24 37/43/37 11/42/11
f 24/29/24 31/28/31 37/43/37
f 31/22/31 10/39/10 37/46/37
f 32/26/32 36/40/36 10/39/10
f 32/26/32 29/19/29 36/40/36
f 29/19/29 9/36/9 36/40/36
f 30/25/30 35/37/35 9/36/9
f 30/25/30 27/16/27 35/37/35
f 27/16/27 8/33/8 35/37/35
f 28/24/28 34/34/34 8/33/8
f 28/24/28 25/13/25 34/34/34
f 25/13/25 7/30/7 34/34/34
f 26/23/26 33/31/33 7/30/7
f 26/23/26 23/10/23 33/31/33
f 23/10/23 11/42/11 33/31/33
f 31/22/31 32/26/32 10/39/10
f 31/22/31 22/21/22 32/26/32
f 22/21/22 5/17/5 32/26/32
f 29/19/29 30/25/30 9/36/9
f 29/19/29 21/18/21 30/25/30
f 21/18/21 4/14/4 30/25/30
f 27/16/27 28/24/28 8/33/8
f 27/16/27 19/15/19 28/24/28
f 19/15/19 3/11/3 28/24/28
f 25/13/25 26/23/26 7/30/7
f 25/13/25 15/12/15 26/23/26
f 15/12/15 2/4/2 26/23/26
f 23/10/23 24/29/24 11/42/11
f 23/10/23 16/5/16 24/29/24
f 16/5/16 6/27/6 24/29/24
f 17/9/17 22/21/22 6/20/6
f 17/9/17 20/8/20 22/21/22
f 20/8/20 5/17/5 22/21/22
f 20/8/20 21/18/21 5/17/5
f 20/8/20 18/6/18 21/18/21
f 18/6/18 4/14/4 21/18/21
f 18/6/18 19/15/19 4/14/4
f 18/6/18 13/3/13 19/15/19
f 13/3/13 3/11/3 19/15/19
f 16/5/16 17/47/17 6/27/6
f 16/5/16 14/2/14 17/47/17
f 14/2/14 1/1/1 17/47/17
f 13/3/13 15/12/15 3/11/3
f 13/3/13 14/2/14 15/12/15
f 14/2/14 2/4/2 15/12/15
f 43/48/43 52/49/52 51/50/51
f 44/51/44 52/49/52 54/52/54
f 43/48/43 56/53/56 55/54/55
f 44/51/44 54/52/54 58/55/58
f 45/56/45 53/57/53 60/58/60
f 47/59/47 57/60/57 62/61/62
f 44/51/44 58/55/58 61/62/61
f 47/59/47 62/61/62 59/63/59
f 48/64/48 64/65/64 68/66/68
f 49/67/49 66/68/66 72/69/72
f 50/70/50 67/71/67 69/72/69
f 71/73/71 87/74/87 89/75/89
f 69/72/69 67/71/67 72/69/72
f 67/71/67 49/67/49 72/69/72
f 73/76/73 98/77/98 101/78/101
f 69/72/69 72/69/72 68/66/68
f 71/73/71 83/79/83 82/80/82
f 77/81/77 83/79/83 85/82/85
f 77/81/77 85/82/85 92/83/92
f 65/84/65 48/64/48 68/66/68
f 68/66/68 64/65/64 69/72/69
f 64/65/64 50/70/50 69/72/69
f 59/63/59 67/71/67 50/70/50
f 59/63/59 62/61/62 67/71/67
f 62/61/62 49/67/49 67/71/67
f 63/85/63 66/86/66 49/87/49
f 60/58/60 48/64/48 65/84/65
f 61/62/61 64/65/64 48/64/48
f 61/62/61 58/55/58 64/65/64
f 58/55/58 50/70/50 64/65/64
f 62/61/62 63/88/63 49/67/49
f 62/61/62 57/60/57 63/88/63
f 57/89/57 46/90/46 63/85/63
f 60/58/60 61/62/61 48/64/48
f 60/58/60 53/57/53 61/62/61
f 53/57/53 44/51/44 61/62/61
f 58/55/58 59/63/59 50/70/50
f 58/55/58 54/52/54 59/63/59
f 54/52/54 47/59/47 59/63/59
f 55/54/55 57/60/57 47/59/47
f 55/54/55 56/53/56 57/60/57
f 56/91/56 46/90/46 57/89/57
f 54/52/54 55/54/55 47/59/47
f 54/52/54 52/49/52 55/54/55
f 52/49/52 43/48/43 55/54/55
f 51/50/51 53/57/53 45/56/45
f 51/50/51 52/49/52 53/57/53
f 52/49/52 44/51/44 53/57/53
f 73/76/73 90/92/90 98/77/98
f 70/93/70 100/94/100 93/95/93
f 75/96/75 94/97/94 97/98/97
f 70/93/70 91/99/91 100/94/100
f 71/73/71 82/80/82 87/74/87
f 77/81/77 92/83/92 95/100/95
f 76/101/76 88/102/88 96/103/96
f 75/96/75 84/104/84 94/97/94
f 71/73/71 89/75/89 86/105/86
f 76/101/76 96/103/96 99/106/99
f 93/95/93 106/107/106 74/108/74
f 93/95/93 100/94/100 106/107/106
f 100/94/100 78/109/78 106/107/106
f 101/78/101 105/110/105 78/109/78
f 101/78/101 98/77/98 105/110/105
f 98/77/98 79/111/79 105/110/105
f 99/106/99 104/112/104 79/111/79
f 99/106/99 96/103/96 104/112/104
f 96/103/96 80/113/80 104/112/104
f 97/98/97 103/114/103 80/113/80
f 97/98/97 94/97/94 103/114/103
f 94/97/94 81/115/81 103/114/103
f 95/100/95 102/116/102 81/115/81
f 95/100/95 92/83/92 102/116/102
f 92/83/92 74/108/74 102/116/102
f 100/94/100 101/78/101 78/109/78
f 100/94/100 91/99/91 101/78/101
f 91/99/91 73/76/73 101/78/101
f 98/77/98 99/106/99 79/111/79
f 98/77/98 90/92/90 99/106/99
f 90/92/90 76/101/76 99/106/99
f 96/103/96 97/98/97 80/113/80
f 96/103/96 88/102/88 97/98/97
f 88/102/88 75/96/75 97/98/97
f 94/97/94 95/100/95 81/115/81
f 94/97/94 84/104/84 95/100/95
f 84/104/84 77/81/77 95/100/95
f 92/83/92 93/95/93 74/108/74
f 92/83/92 85/82/85 93/95/93
f 85/82/85 70/93/70 93/95/93
f 86/105/86 91/99/91 70/93/70
f 86/105/86 89/75/89 91/99/91
f 89/75/89 73/76/73 91/99/91
f 89/75/89 90/92/90 73/76/73
f 89/75/89 87/74/87 90/92/90
f 87/74/87 76/101/76 90/92/90
f 87/74/87 88/102/88 76/101/76
f 87/74/87 82/80/82 88/102/88
f 82/80/82 75/96/75 88/102/88
f 85/82/85 86/105/86 70/93/70
f 85/82/85 83/79/83 86/105/86
f 83/79/83 71/73/71 86/105/86
f 82/80/82 84/104/84 75/96/75
f 82/80/82 83/79/83 84/104/84
f 83/79/83 77/81/77 84/104/84
f 108/117/71 123/118/87 125/119/89
f 109/120/73 134/121/98 137/122/101
f 108/117/71 119/123/83 118/124/82
f 113/125/77 119/123/83 121/126/85
f 113/125/77 121/126/85 128/127/92
f 109/120/73 126/128/90 134/121/98
f 107/129/70 136/130/100 129/131/93
f 111/132/75 130/133/94 133/134/97
f 107/129/70 127/135/91 136/130/100
f 108/117/71 118/124/82 123/118/87
f 113/125/77 128/127/92 131/136/95
f 112/137/76 124/138/88 132/139/96
f 111/132/75 120/140/84 130/133/94
f 108/117/71 125/119/89 122/141/86
f 112/137/76 132/139/96 135/142/99
f 129/131/93 142/143/106 110/144/74
f 129/131/93 136/130/100 142/143/106
f 136/130/100 114/145/78 142/143/106
f 137/122/101 141/146/105 114/145/78
f 137/122/101 134/121/98 141/146/105
f 134/121/98 115/147/79 141/146/105
f 135/142/99 140/148/104 115/147/79
f 135/142/99 132/139/96 140/148/104
f 132/139/96 116/149/80 140/148/104
f 133/134/97 139/150/103 116/149/80
f 133/134/97 130/133/94 139/150/103
f 130/133/94 117/151/81 139/150/103
f 131/136/95 138/152/102 117/151/81
f 131/136/95 128/127/92 138/152/102
f 128/127/92 110/144/74 138/152/102
f 136/130/100 137/122/101 114/145/78
f 136/130/100 127/135/91 137/122/101
f 127/135/91 109/120/73 137/122/101
f 134/121/98 135/142/99 115/147/79
f 134/121/98 126/128/90 135/142/99
f 126/128/90 112/137/76 135/142/99
f 132/139/96 133/134/97 116/149/80
f 132/139/96 124/138/88 133/134/97
f 124/138/88 111/132/75 133/134/97
f 130/133/94 131/136/95 117/151/81
f 130/133/94 120/140/84 131/136/95
f 120/140/84 113/125/77 131/136/95
f 128/127/92 129/131/93 110/144/74
f 128/127/92 121/126/85 129/131/93
f 121/126/85 107/129/70 129/131/93
f 122/141/86 127/135/91 107/129/70
f 122/141/86 125/119/89 127/135/91
f 125/119/89 109/120/73 127/135/91
f 125/119/89 126/128/90 109/120/73
f 125/119/89 123/118/87 126/128/90
f 123/118/87 112/137/76 126/128/90
f 123/118/87 124/138/88 112/137/76
f 123/118/87 118/124/82 124/138/88
f 118/124/82 111/132/75 124/138/88
f 121/126/85 122/141/86 107/129/70
f 121/126/85 119/123/83 122/141/86
f 119/123/83 108/117/71 122/141/86
f 118/124/82 120/140/84 111/132/75
f 118/124/82 119/123/83 120/140/84
f 119/123/83 113/125/77 120/140/84
o Icosphere.001
v -0.721043 0.582920 0.574786
v -1.020104 0.582921 -0.000000
v -0.721043 0.582920 -0.574786
v -0.453562 1.113106 0.574786
v -0.937447 1.113106 0.355234
v -0.937447 1.113106 -0.355234
v -0.453562 1.113106 -0.574786
v -0.587302 1.267809 -0.000000
v -0.665913 0.470013 0.337848
v -0.460104 0.560946 0.546651
v -0.812930 0.470014 -0.000000
v -0.920308 0.560946 0.337849
v -0.665913 0.470013 -0.337848
v -0.920308 0.560946 -0.337849
v -0.460104 0.560946 -0.546651
v -0.587302 0.848013 0.675703
v -0.302880 0.848013 0.546655
v -1.047507 0.848013 0.208801
v -0.871724 0.848013 0.546655
v -0.871724 0.848013 -0.546655
v -1.047507 0.848013 -0.208801
v -0.302880 0.848013 -0.546655
v -0.587302 0.848013 -0.675703
v -0.714501 1.135080 0.546651
v -0.998920 1.135080 -0.000000
v -0.714501 1.135080 -0.546651
v -0.508692 1.226013 0.337848
v -0.793111 1.226013 0.208800
v -0.793111 1.226013 -0.208800
v -0.508692 1.226013 -0.337848
vn -0.3105 -0.5959 0.7406
vn -0.8290 -0.5593 -0.0000
vn -0.3105 -0.5959 -0.7406
vn 0.1218 0.5482 0.8274
vn -0.7256 0.5587 0.4016
vn -0.7256 0.5587 -0.4016
vn 0.1218 0.5482 -0.8274
vn -0.1232 0.9924 -0.0000
vn -0.2456 -0.9210 0.3022
vn 0.1582 -0.5466 0.8223
vn -0.4248 -0.9053 -0.0000
vn -0.6828 -0.6340 0.3631
vn -0.2456 -0.9210 -0.3022
vn -0.6828 -0.6340 -0.3631
vn 0.1582 -0.5466 -0.8223
vn -0.0000 -0.0000 1.0000
vn 0.4127 -0.0472 0.9096
vn -0.9709 -0.0022 0.2396
vn -0.6835 0.0053 0.7299
vn -0.6835 0.0053 -0.7299
vn -0.9709 -0.0022 -0.2396
vn 0.4127 -0.0472 -0.9096
vn -0.0000 -0.0000 -1.0000
vn -0.2957 0.6641 0.6866
vn -0.7936 0.6085 -0.0000
vn -0.2957 0.6641 -0.6866
vn -0.0614 0.9562 0.2861
vn -0.2948 0.9426 0.1570
vn -0.2948 0.9426 -0.1570
vn -0.0614 0.9562 -0.2861
vt 0.511787 0.641900
vt 0.536217 0.680333
vt 0.533633 0.694210
vt 0.420875 0.637615
vt 0.468618 0.629512
vt 0.449934 0.668736
vt 0.331189 0.691915
vt 0.373140 0.657043
vt 0.351802 0.710813
vt 0.496940 0.669746
vt 0.398750 0.683687
vt 0.317288 0.752783
vt 0.473213 0.710190
vt 0.508008 0.727563
vt 0.463632 0.752734
vt 0.384871 0.735844
vt 0.429696 0.722203
vt 0.405929 0.769704
vt 0.332197 0.812891
vt 0.353359 0.771296
vt 0.381864 0.821111
vt 0.442969 0.802769
vt 0.500025 0.786759
vt 0.534917 0.757112
vt 0.308136 0.817358
vt 0.311645 0.740696
vt 0.553796 0.752154
vt 0.360682 0.686480
vt 0.421891 0.648860
vt 0.484830 0.651037
s 1
usemtl Visor
f 143/153/107 152/154/116 158/155/122
f 144/156/108 154/157/118 160/158/124
f 145/159/109 156/160/120 162/161/126
f 143/153/107 158/155/122 161/162/125
f 144/156/108 160/158/124 163/163/127
f 145/159/109 162/161/126 165/164/129
f 147/165/111 166/166/130 170/167/134
f 148/168/112 167/169/131 171/170/135
f 149/171/113 168/172/132 172/173/136
f 172/173/136 171/170/135 150/174/114
f 172/173/136 168/172/132 171/170/135
f 168/172/132 148/168/112 171/170/135
f 171/170/135 170/167/134 150/174/114
f 171/170/135 167/169/131 170/167/134
f 167/169/131 147/165/111 170/167/134
f 170/167/134 169/175/133 150/174/114
f 170/167/134 166/166/130 169/175/133
f 166/166/130 146/176/110 169/175/133
f 165/164/129 168/172/132 149/171/113
f 165/164/129 162/161/126 168/172/132
f 162/161/126 148/168/112 168/172/132
f 163/163/127 167/169/131 148/168/112
f 163/163/127 160/158/124 167/169/131
f 160/158/124 147/165/111 167/169/131
f 161/162/125 166/166/130 147/165/111
f 161/162/125 158/155/122 166/166/130
f 158/155/122 146/176/110 166/166/130
f 164/177/128 165/164/129 149/171/113
f 164/177/128 157/178/121 165/164/129
f 157/178/121 145/159/109 165/164/129
f 162/161/126 163/163/127 148/168/112
f 162/161/126 156/160/120 163/163/127
f 156/160/120 144/156/108 163/163/127
f 160/158/124 161/162/125 147/165/111
f 160/158/124 154/157/118 161/162/125
f 154/157/118 143/153/107 161/162/125
f 158/155/122 159/179/123 146/176/110
f 158/155/122 152/154/116 159/179/123
f 155/180/119 145/159/109 157/178/121
f 155/180/119 156/160/120 145/159/109
f 155/180/119 153/181/117 156/160/120
f 153/181/117 144/156/108 156/160/120
f 153/181/117 154/157/118 144/156/108
f 153/181/117 151/182/115 154/157/118
f 151/182/115 143/153/107 154/157/118
f 151/182/115 152/154/116 143/153/107
