# Blender 4.3.2
# www.blender.org
mtllib Barrel.mtl
o Cylinder
v 0.000000 -1.000000 -1.000000
v 0.000000 1.000000 -1.000000
v 0.195090 -1.000000 -0.980785
v 0.195090 1.000000 -0.980785
v 0.382683 -1.000000 -0.923880
v 0.382683 1.000000 -0.923880
v 0.555570 -1.000000 -0.831470
v 0.555570 1.000000 -0.831470
v 0.707107 -1.000000 -0.707107
v 0.707107 1.000000 -0.707107
v 0.831470 -1.000000 -0.555570
v 0.831470 1.000000 -0.555570
v 0.923880 -1.000000 -0.382683
v 0.923880 1.000000 -0.382683
v 0.980785 -1.000000 -0.195090
v 0.980785 1.000000 -0.195090
v 1.000000 -1.000000 0.000000
v 1.000000 1.000000 -0.000000
v 0.980785 -1.000000 0.195090
v 0.980785 1.000000 0.195090
v 0.923880 -1.000000 0.382683
v 0.923880 1.000000 0.382683
v 0.831470 -1.000000 0.555570
v 0.831470 1.000000 0.555570
v 0.707107 -1.000000 0.707107
v 0.707107 1.000000 0.707107
v 0.555570 -1.000000 0.831470
v 0.555570 1.000000 0.831470
v 0.382683 -1.000000 0.923880
v 0.382683 1.000000 0.923880
v 0.195090 -1.000000 0.980785
v 0.195090 1.000000 0.980785
v 0.000000 -1.000000 1.000000
v 0.000000 1.000000 1.000000
v -0.195090 -1.000000 0.980785
v -0.195090 1.000000 0.980785
v -0.382683 -1.000000 0.923880
v -0.382683 1.000000 0.923880
v -0.555570 -1.000000 0.831470
v -0.555570 1.000000 0.831470
v -0.707107 -1.000000 0.707107
v -0.707107 1.000000 0.707107
v -0.831470 -1.000000 0.555570
v -0.831470 1.000000 0.555570
v -0.923880 -1.000000 0.382683
v -0.923880 1.000000 0.382683
v -0.980785 -1.000000 0.195090
v -0.980785 1.000000 0.195090
v -1.000000 -1.000000 0.000000
v -1.000000 1.000000 -0.000000
v -0.980785 -1.000000 -0.195090
v -0.980785 1.000000 -0.195090
v -0.923880 -1.000000 -0.382683
v -0.923880 1.000000 -0.382683
v -0.831470 -1.000000 -0.555570
v -0.831470 1.000000 -0.555570
v -0.707107 -1.000000 -0.707107
v -0.707107 1.000000 -0.707107
v -0.555570 -1.000000 -0.831470
v -0.555570 1.000000 -0.831470
v -0.382683 -1.000000 -0.923880
v -0.382683 1.000000 -0.923880
v -0.195090 -1.000000 -0.980785
v -0.195090 1.000000 -0.980785
v 0.000000 -0.750000 -1.117724
v 0.000000 -0.500000 -1.192653
v -0.000000 -0.262029 -1.250040
v -0.000000 -0.000000 -1.279410
v -0.000000 0.262029 -1.250040
v 0.000000 0.500000 -1.192653
v 0.000000 0.750000 -1.117724
v 0.218057 -0.750000 -1.096247
v 0.232675 -0.500000 -1.169736
v 0.243870 -0.262029 -1.226020
v 0.249600 -0.000000 -1.254826
v 0.243870 0.262029 -1.226020
v 0.232675 0.500000 -1.169736
v 0.218057 0.750000 -1.096247
v 0.427734 -0.750000 -1.032643
v 0.456408 -0.500000 -1.101868
v 0.478369 -0.262029 -1.154887
v 0.489608 -0.000000 -1.182021
v 0.478369 0.262029 -1.154887
v 0.456408 0.500000 -1.101868
v 0.427734 0.750000 -1.032643
v 0.620974 -0.750000 -0.929354
v 0.662602 -0.500000 -0.991655
v 0.694485 -0.262029 -1.039371
v 0.710802 -0.000000 -1.063791
v 0.694485 0.262029 -1.039371
v 0.662602 0.500000 -0.991655
v 0.620974 0.750000 -0.929354
v 0.790350 -0.750000 -0.790350
v 0.843333 -0.500000 -0.843333
v 0.883912 -0.262029 -0.883912
v 0.904680 -0.000000 -0.904680
v 0.883912 0.262029 -0.883912
v 0.843333 0.500000 -0.843333
v 0.790350 0.750000 -0.790350
v 0.929354 -0.750000 -0.620974
v 0.991655 -0.500000 -0.662602
v 1.039371 -0.262029 -0.694485
v 1.063791 -0.000000 -0.710802
v 1.039371 0.262029 -0.694485
v 0.991655 0.500000 -0.662602
v 0.929354 0.750000 -0.620974
v 1.032643 -0.750000 -0.427734
v 1.101868 -0.500000 -0.456408
v 1.154887 -0.262029 -0.478369
v 1.182021 -0.000000 -0.489608
v 1.154887 0.262029 -0.478369
v 1.101868 0.500000 -0.456408
v 1.032643 0.750000 -0.427734
v 1.096247 -0.750000 -0.218057
v 1.169736 -0.500000 -0.232675
v 1.226020 -0.262029 -0.243870
v 1.254826 -0.000000 -0.249600
v 1.226020 0.262029 -0.243870
v 1.169736 0.500000 -0.232675
v 1.096247 0.750000 -0.218057
v 1.117724 -0.750000 0.000000
v 1.192653 -0.500000 0.000000
v 1.250040 -0.262029 0.000000
v 1.279410 0.000000 0.000000
v 1.250040 0.262029 -0.000000
v 1.192653 0.500000 -0.000000
v 1.117724 0.750000 -0.000000
v 1.096247 -0.750000 0.218057
v 1.169736 -0.500000 0.232675
v 1.226020 -0.262029 0.243870
v 1.254826 0.000000 0.249600
v 1.226020 0.262029 0.243870
v 1.169736 0.500000 0.232675
v 1.096247 0.750000 0.218057
v 1.032643 -0.750000 0.427734
v 1.101868 -0.500000 0.456408
v 1.154887 -0.262029 0.478369
v 1.182021 0.000000 0.489608
v 1.154887 0.262029 0.478369
v 1.101868 0.500000 0.456408
v 1.032643 0.750000 0.427734
v 0.929354 -0.750000 0.620974
v 0.991655 -0.500000 0.662602
v 1.039371 -0.262029 0.694485
v 1.063791 0.000000 0.710802
v 1.039371 0.262029 0.694485
v 0.991655 0.500000 0.662602
v 0.929354 0.750000 0.620974
v 0.790350 -0.750000 0.790350
v 0.843333 -0.500000 0.843333
v 0.883912 -0.262029 0.883912
v 0.904680 0.000000 0.904680
v 0.883912 0.262029 0.883912
v 0.843333 0.500000 0.843333
v 0.790350 0.750000 0.790350
v 0.620974 -0.750000 0.929354
v 0.662602 -0.500000 0.991655
v 0.694485 -0.262029 1.039371
v 0.710802 0.000000 1.063791
v 0.694485 0.262029 1.039371
v 0.662602 0.500000 0.991655
v 0.620974 0.750000 0.929354
v 0.427734 -0.750000 1.032643
v 0.456408 -0.500000 1.101868
v 0.478369 -0.262029 1.154887
v 0.489608 0.000000 1.182021
v 0.478369 0.262029 1.154887
v 0.456408 0.500000 1.101868
v 0.427734 0.750000 1.032643
v 0.218057 -0.750000 1.096247
v 0.232675 -0.500000 1.169736
v 0.243870 -0.262029 1.226020
v 0.249600 0.000000 1.254826
v 0.243870 0.262029 1.226020
v 0.232675 0.500000 1.169736
v 0.218057 0.750000 1.096247
v 0.000000 -0.750000 1.117724
v 0.000000 -0.500000 1.192653
v -0.000000 -0.262029 1.250040
v -0.000000 0.000000 1.279410
v -0.000000 0.262029 1.250040
v 0.000000 0.500000 1.192653
v 0.000000 0.750000 1.117724
v -0.218057 -0.750000 1.096247
v -0.232675 -0.500000 1.169736
v -0.243870 -0.262029 1.226020
v -0.249600 0.000000 1.254826
v -0.243870 0.262029 1.226020
v -0.232675 0.500000 1.169736
v -0.218057 0.750000 1.096247
v -0.427734 -0.750000 1.032643
v -0.456408 -0.500000 1.101868
v -0.478369 -0.262029 1.154887
v -0.489608 0.000000 1.182021
v -0.478369 0.262029 1.154887
v -0.456408 0.500000 1.101868
v -0.427734 0.750000 1.032643
v -0.620974 -0.750000 0.929354
v -0.662602 -0.500000 0.991655
v -0.694485 -0.262029 1.039371
v -0.710802 0.000000 1.063791
v -0.694485 0.262029 1.039371
v -0.662602 0.500000 0.991655
v -0.620974 0.750000 0.929354
v -0.790350 -0.750000 0.790350
v -0.843333 -0.500000 0.843333
v -0.883912 -0.262029 0.883912
v -0.904680 0.000000 0.904680
v -0.883912 0.262029 0.883912
v -0.843333 0.500000 0.843333
v -0.790350 0.750000 0.790350
v -0.929354 -0.750000 0.620974
v -0.991655 -0.500000 0.662602
v -1.039371 -0.262029 0.694485
v -1.063791 0.000000 0.710802
v -1.039371 0.262029 0.694485
v -0.991655 0.500000 0.662602
v -0.929354 0.750000 0.620974
v -1.032643 -0.750000 0.427734
v -1.101868 -0.500000 0.456408
v -1.154887 -0.262029 0.478369
v -1.182021 0.000000 0.489608
v -1.154887 0.262029 0.478369
v -1.101868 0.500000 0.456408
v -1.032643 0.750000 0.427734
v -1.096247 -0.750000 0.218057
v -1.169736 -0.500000 0.232675
v -1.226020 -0.262029 0.243870
v -1.254826 0.000000 0.249600
v -1.226020 0.262029 0.243870
v -1.169736 0.500000 0.232675
v -1.096247 0.750000 0.218057
v -1.117724 -0.750000 0.000000
v -1.192653 -0.500000 0.000000
v -1.250040 -0.262029 0.000000
v -1.279410 0.000000 0.000000
v -1.250040 0.262029 -0.000000
v -1.192653 0.500000 -0.000000
v -1.117724 0.750000 -0.000000
v -1.096247 -0.750000 -0.218057
v -1.169736 -0.500000 -0.232675
v -1.226020 -0.262029 -0.243870
v -1.254826 -0.000000 -0.249600
v -1.226020 0.262029 -0.243870
v -1.169736 0.500000 -0.232675
v -1.096247 0.750000 -0.218057
v -1.032643 -0.750000 -0.427734
v -1.101868 -0.500000 -0.456408
v -1.154887 -0.262029 -0.478369
v -1.182021 -0.000000 -0.489608
v -1.154887 0.262029 -0.478369
v -1.101868 0.500000 -0.456408
v -1.032643 0.750000 -0.427734
v -0.929354 -0.750000 -0.620974
v -0.991655 -0.500000 -0.662602
v -1.039371 -0.262029 -0.694485
v -1.063791 -0.000000 -0.710802
v -1.039371 0.262029 -0.694485
v -0.991655 0.500000 -0.662602
v -0.929354 0.750000 -0.620974
v -0.790350 -0.750000 -0.790350
v -0.843333 -0.500000 -0.843333
v -0.883912 -0.262029 -0.883912
v -0.904680 -0.000000 -0.904680
v -0.883912 0.262029 -0.883912
v -0.843333 0.500000 -0.843333
v -0.790350 0.750000 -0.790350
v -0.620974 -0.750000 -0.929354
v -0.662602 -0.500000 -0.991655
v -0.694485 -0.262029 -1.039371
v -0.710802 -0.000000 -1.063791
v -0.694485 0.262029 -1.039371
v -0.662602 0.500000 -0.991655
v -0.620974 0.750000 -0.929354
v -0.427734 -0.750000 -1.032643
v -0.456408 -0.500000 -1.101868
v -0.478369 -0.262029 -1.154887
v -0.489608 -0.000000 -1.182021
v -0.478369 0.262029 -1.154887
v -0.456408 0.500000 -1.101868
v -0.427734 0.750000 -1.032643
v -0.218057 -0.750000 -1.096247
v -0.232675 -0.500000 -1.169736
v -0.243870 -0.262029 -1.226020
v -0.249600 -0.000000 -1.254826
v -0.243870 0.262029 -1.226020
v -0.232675 0.500000 -1.169736
v -0.218057 0.750000 -1.096247
vn -0.0917 -0.3545 -0.9305
vn -0.0888 -0.4243 -0.9011
vn -0.2714 -0.3545 -0.8948
vn -0.2629 -0.4243 -0.8665
vn -0.0000 1.0000 -0.0000
vn -0.4408 -0.3545 -0.8246
vn -0.4269 -0.4243 -0.7986
vn -0.5932 -0.3545 -0.7228
vn -0.5744 -0.4243 -0.7000
vn -0.7228 -0.3545 -0.5932
vn -0.7000 -0.4243 -0.5744
vn -0.8246 -0.3545 -0.4408
vn -0.7986 -0.4243 -0.4269
vn -0.8948 -0.3545 -0.2714
vn -0.8665 -0.4243 -0.2629
vn -0.9305 -0.3545 -0.0917
vn -0.9011 -0.4243 -0.0888
vn -0.9305 -0.3545 0.0917
vn -0.9011 -0.4243 0.0888
vn -0.8948 -0.3545 0.2714
vn -0.8665 -0.4243 0.2629
vn -0.8246 -0.3545 0.4408
vn -0.7986 -0.4243 0.4269
vn -0.7228 -0.3545 0.5932
vn -0.7000 -0.4243 0.5744
vn -0.5932 -0.3545 0.7228
vn -0.5744 -0.4243 0.7000
vn -0.4408 -0.3545 0.8246
vn -0.4269 -0.4243 0.7986
vn -0.2714 -0.3545 0.8948
vn -0.2629 -0.4243 0.8665
vn 0.0917 -0.3545 -0.9305
vn 0.0888 -0.4243 -0.9011
vn -0.0000 -1.0000 -0.0000
vn 0.0917 -0.3545 0.9305
vn 0.0888 -0.4243 0.9011
vn 0.2714 -0.3545 0.8948
vn 0.2629 -0.4243 0.8665
vn 0.4408 -0.3545 0.8246
vn 0.4269 -0.4243 0.7986
vn 0.5932 -0.3545 0.7228
vn 0.5744 -0.4243 0.7000
vn 0.7228 -0.3545 0.5932
vn 0.7000 -0.4243 0.5744
vn 0.8246 -0.3545 0.4408
vn 0.7986 -0.4243 0.4268
vn 0.8948 -0.3545 0.2714
vn 0.8665 -0.4243 0.2629
vn 0.9305 -0.3545 0.0917
vn 0.9011 -0.4243 0.0888
vn 0.9305 -0.3545 -0.0917
vn 0.9011 -0.4243 -0.0888
vn 0.8948 -0.3545 -0.2714
vn 0.8665 -0.4243 -0.2629
vn 0.8246 -0.3545 -0.4408
vn 0.7986 -0.4243 -0.4269
vn 0.7228 -0.3545 -0.5932
vn 0.7000 -0.4243 -0.5744
vn 0.5932 -0.3545 -0.7228
vn 0.5744 -0.4243 -0.7000
vn 0.4408 -0.3545 -0.8246
vn 0.4268 -0.4243 -0.7986
vn 0.2714 -0.3545 -0.8948
vn 0.2629 -0.4243 -0.8665
vn -0.0917 -0.3545 0.9305
vn -0.0888 -0.4243 0.9011
vn -0.0888 0.4243 0.9011
vn -0.0917 0.3545 0.9305
vn -0.0947 0.2593 0.9612
vn -0.0966 0.1718 0.9804
vn -0.0980 -0.0000 0.9952
vn -0.0966 -0.1718 0.9804
vn -0.0947 -0.2593 0.9612
vn 0.2629 0.4243 -0.8665
vn 0.2714 0.3545 -0.8948
vn 0.2804 0.2593 -0.9242
vn 0.2860 0.1718 -0.9427
vn 0.2903 -0.0000 -0.9569
vn 0.2860 -0.1718 -0.9427
vn 0.2804 -0.2593 -0.9242
vn 0.4269 0.4243 -0.7986
vn 0.4408 0.3545 -0.8246
vn 0.4553 0.2593 -0.8518
vn 0.4644 0.1718 -0.8688
vn 0.4714 -0.0000 -0.8819
vn 0.4644 -0.1718 -0.8688
vn 0.4553 -0.2593 -0.8518
vn 0.5744 0.4243 -0.7000
vn 0.5932 0.3545 -0.7228
vn 0.6127 0.2593 -0.7466
vn 0.6250 0.1718 -0.7615
vn 0.6344 -0.0000 -0.7730
vn 0.6250 -0.1718 -0.7615
vn 0.6127 -0.2593 -0.7466
vn 0.7000 0.4243 -0.5744
vn 0.7228 0.3545 -0.5932
vn 0.7466 0.2593 -0.6127
vn 0.7615 0.1718 -0.6250
vn 0.7730 -0.0000 -0.6344
vn 0.7615 -0.1718 -0.6250
vn 0.7466 -0.2593 -0.6127
vn 0.7986 0.4243 -0.4269
vn 0.8246 0.3545 -0.4408
vn 0.8518 0.2593 -0.4553
vn 0.8688 0.1718 -0.4644
vn 0.8819 -0.0000 -0.4714
vn 0.8688 -0.1718 -0.4644
vn 0.8518 -0.2593 -0.4553
vn 0.8665 0.4243 -0.2629
vn 0.8948 0.3545 -0.2714
vn 0.9242 0.2593 -0.2804
vn 0.9427 0.1718 -0.2860
vn 0.9569 -0.0000 -0.2903
vn 0.9427 -0.1718 -0.2860
vn 0.9242 -0.2593 -0.2804
vn 0.9011 0.4243 -0.0888
vn 0.9305 0.3545 -0.0917
vn 0.9612 0.2593 -0.0947
vn 0.9804 0.1718 -0.0966
vn 0.9952 -0.0000 -0.0980
vn 0.9804 -0.1718 -0.0966
vn 0.9612 -0.2593 -0.0947
vn 0.9011 0.4243 0.0888
vn 0.9305 0.3545 0.0917
vn 0.9612 0.2593 0.0947
vn 0.9804 0.1718 0.0966
vn 0.9952 -0.0000 0.0980
vn 0.9804 -0.1718 0.0966
vn 0.9612 -0.2593 0.0947
vn 0.8665 0.4243 0.2629
vn 0.8948 0.3545 0.2714
vn 0.9242 0.2593 0.2804
vn 0.9427 0.1718 0.2860
vn 0.9569 -0.0000 0.2903
vn 0.9427 -0.1718 0.2860
vn 0.9242 -0.2593 0.2804
vn 0.7986 0.4243 0.4268
vn 0.8246 0.3545 0.4408
vn 0.7986 0.4243 0.4269
vn 0.8518 0.2593 0.4553
vn 0.8688 0.1718 0.4644
vn 0.8819 -0.0000 0.4714
vn 0.8688 -0.1718 0.4644
vn 0.8518 -0.2593 0.4553
vn 0.7000 0.4243 0.5744
vn 0.7228 0.3545 0.5932
vn 0.7466 0.2593 0.6127
vn 0.7615 0.1718 0.6250
vn 0.7730 -0.0000 0.6344
vn 0.7615 -0.1718 0.6250
vn 0.7466 -0.2593 0.6127
vn 0.5744 0.4243 0.7000
vn 0.5932 0.3545 0.7228
vn 0.6127 0.2593 0.7466
vn 0.6250 0.1718 0.7615
vn 0.6344 -0.0000 0.7730
vn 0.6250 -0.1718 0.7615
vn 0.6127 -0.2593 0.7466
vn 0.4268 0.4243 0.7986
vn 0.4408 0.3545 0.8246
vn 0.4269 0.4243 0.7986
vn 0.4553 0.2593 0.8518
vn 0.4644 0.1718 0.8688
vn 0.4714 -0.0000 0.8819
vn 0.4644 -0.1718 0.8688
vn 0.4553 -0.2593 0.8518
vn 0.2629 0.4243 0.8665
vn 0.2714 0.3545 0.8948
vn 0.2804 0.2593 0.9242
vn 0.2860 0.1718 0.9427
vn 0.2903 -0.0000 0.9569
vn 0.2860 -0.1718 0.9427
vn 0.2804 -0.2593 0.9242
vn 0.0888 0.4243 0.9011
vn 0.0917 0.3545 0.9305
vn 0.0947 0.2593 0.9612
vn 0.0966 0.1718 0.9804
vn 0.0980 -0.0000 0.9952
vn 0.0966 -0.1718 0.9804
vn 0.0947 -0.2593 0.9612
vn 0.0888 0.4243 -0.9011
vn 0.0917 0.3545 -0.9305
vn 0.0947 0.2593 -0.9612
vn 0.0966 0.1718 -0.9804
vn 0.0980 -0.0000 -0.9952
vn 0.0966 -0.1718 -0.9804
vn 0.0947 -0.2593 -0.9612
vn -0.2629 0.4243 0.8665
vn -0.2714 0.3545 0.8948
vn -0.2804 0.2593 0.9242
vn -0.2860 0.1718 0.9427
vn -0.2903 -0.0000 0.9569
vn -0.2860 -0.1718 0.9427
vn -0.2804 -0.2593 0.9242
vn -0.4269 0.4243 0.7986
vn -0.4408 0.3545 0.8246
vn -0.4553 0.2593 0.8518
vn -0.4644 0.1718 0.8688
vn -0.4714 -0.0000 0.8819
vn -0.4644 -0.1718 0.8688
vn -0.4553 -0.2593 0.8518
vn -0.5744 0.4243 0.7000
vn -0.5932 0.3545 0.7228
vn -0.6127 0.2593 0.7466
vn -0.6250 0.1718 0.7615
vn -0.6344 -0.0000 0.7730
vn -0.6250 -0.1718 0.7615
vn -0.6127 -0.2593 0.7466
vn -0.7000 0.4243 0.5744
vn -0.7228 0.3545 0.5932
vn -0.7466 0.2593 0.6127
vn -0.7615 0.1718 0.6250
vn -0.7730 -0.0000 0.6344
vn -0.7615 -0.1718 0.6250
vn -0.7466 -0.2593 0.6127
vn -0.7986 0.4243 0.4268
vn -0.8246 0.3545 0.4408
vn -0.8518 0.2593 0.4553
vn -0.8688 0.1718 0.4644
vn -0.8819 -0.0000 0.4714
vn -0.8688 -0.1718 0.4644
vn -0.8518 -0.2593 0.4553
vn -0.8665 0.4243 0.2629
vn -0.8948 0.3545 0.2714
vn -0.9242 0.2593 0.2804
vn -0.9427 0.1718 0.2860
vn -0.9569 -0.0000 0.2903
vn -0.9427 -0.1718 0.2860
vn -0.9242 -0.2593 0.2804
vn -0.9011 0.4243 0.0888
vn -0.9305 0.3545 0.0917
vn -0.9612 0.2593 0.0947
vn -0.9804 0.1718 0.0966
vn -0.9952 -0.0000 0.0980
vn -0.9804 -0.1718 0.0966
vn -0.9612 -0.2593 0.0947
vn -0.9011 0.4243 -0.0888
vn -0.9305 0.3545 -0.0917
vn -0.9612 0.2593 -0.0947
vn -0.9804 0.1718 -0.0966
vn -0.9952 -0.0000 -0.0980
vn -0.9804 -0.1718 -0.0966
vn -0.9612 -0.2593 -0.0947
vn -0.8665 0.4243 -0.2629
vn -0.8948 0.3545 -0.2714
vn -0.9242 0.2593 -0.2804
vn -0.9427 0.1718 -0.2860
vn -0.9569 -0.0000 -0.2903
vn -0.9427 -0.1718 -0.2860
vn -0.9242 -0.2593 -0.2804
vn -0.7986 0.4243 -0.4269
vn -0.8246 0.3545 -0.4408
vn -0.8518 0.2593 -0.4553
vn -0.8688 0.1718 -0.4644
vn -0.8819 -0.0000 -0.4714
vn -0.8688 -0.1718 -0.4644
vn -0.8518 -0.2593 -0.4553
vn -0.7000 0.4243 -0.5744
vn -0.7228 0.3545 -0.5932
vn -0.7466 0.2593 -0.6127
vn -0.7615 0.1718 -0.6250
vn -0.7730 -0.0000 -0.6344
vn -0.7615 -0.1718 -0.6250
vn -0.7466 -0.2593 -0.6127
vn -0.5744 0.4243 -0.7000
vn -0.5932 0.3545 -0.7228
vn -0.6127 0.2593 -0.7466
vn -0.6250 0.1718 -0.7615
vn -0.6344 -0.0000 -0.7730
vn -0.6250 -0.1718 -0.7615
vn -0.6127 -0.2593 -0.7466
vn -0.4269 0.4243 -0.7986
vn -0.4408 0.3545 -0.8246
vn -0.4553 0.2593 -0.8518
vn -0.4644 0.1718 -0.8688
vn -0.4714 -0.0000 -0.8819
vn -0.4644 -0.1718 -0.8688
vn -0.4553 -0.2593 -0.8518
vn -0.2629 0.4243 -0.8665
vn -0.2714 0.3545 -0.8948
vn -0.2804 0.2593 -0.9242
vn -0.2860 0.1718 -0.9427
vn -0.2903 -0.0000 -0.9569
vn -0.2860 -0.1718 -0.9427
vn -0.2804 -0.2593 -0.9242
vn -0.0888 0.4243 -0.9011
vn -0.0917 0.3545 -0.9305
vn -0.0947 0.2593 -0.9612
vn -0.0966 0.1718 -0.9804
vn -0.0980 -0.0000 -0.9952
vn -0.0966 -0.1718 -0.9804
vn -0.0947 -0.2593 -0.9612
vn 0.7986 -0.4243 0.4269
vt 0.000000 0.562500
vt 0.031250 0.500000
vt 0.031250 0.562500
vt 0.062500 0.500000
vt 0.062500 0.562500
vt 0.028269 0.341844
vt 0.471731 0.158156
vt 0.341844 0.471731
vt 0.093750 0.500000
vt 0.093750 0.562500
vt 0.125000 0.500000
vt 0.125000 0.562500
vt 0.156250 0.500000
vt 0.156250 0.562500
vt 0.187500 0.500000
vt 0.187500 0.562500
vt 0.218750 0.500000
vt 0.218750 0.562500
vt 0.250000 0.500000
vt 0.250000 0.562500
vt 0.281250 0.500000
vt 0.281250 0.562500
vt 0.312500 0.500000
vt 0.312500 0.562500
vt 0.343750 0.500000
vt 0.343750 0.562500
vt 0.375000 0.500000
vt 0.375000 0.562500
vt 0.406250 0.500000
vt 0.406250 0.562500
vt 0.437500 0.500000
vt 0.437500 0.562500
vt 0.468750 0.500000
vt 0.468750 0.562500
vt 0.968750 0.562500
vt 1.000000 0.500000
vt 1.000000 0.562500
vt 0.985388 0.296822
vt 0.514612 0.203178
vt 0.703178 0.485388
vt 0.500000 0.562500
vt 0.531250 0.500000
vt 0.531250 0.562500
vt 0.562500 0.500000
vt 0.562500 0.562500
vt 0.593750 0.500000
vt 0.593750 0.562500
vt 0.625000 0.500000
vt 0.625000 0.562500
vt 0.656250 0.500000
vt 0.656250 0.562500
vt 0.687500 0.500000
vt 0.687500 0.562500
vt 0.718750 0.500000
vt 0.718750 0.562500
vt 0.750000 0.500000
vt 0.750000 0.562500
vt 0.781250 0.500000
vt 0.781250 0.562500
vt 0.812500 0.500000
vt 0.812500 0.562500
vt 0.843750 0.500000
vt 0.843750 0.562500
vt 0.875000 0.500000
vt 0.875000 0.562500
vt 0.906250 0.500000
vt 0.906250 0.562500
vt 0.937500 0.500000
vt 0.937500 0.562500
vt 0.968750 0.500000
vt 0.296822 0.485388
vt 0.250000 0.490000
vt 0.203178 0.485388
vt 0.158156 0.471731
vt 0.116663 0.449553
vt 0.080294 0.419706
vt 0.050447 0.383337
vt 0.014612 0.296822
vt 0.010000 0.250000
vt 0.014612 0.203178
vt 0.028269 0.158156
vt 0.050447 0.116663
vt 0.080294 0.080294
vt 0.116663 0.050447
vt 0.158156 0.028269
vt 0.203178 0.014612
vt 0.250000 0.010000
vt 0.296822 0.014612
vt 0.341844 0.028269
vt 0.383337 0.050447
vt 0.419706 0.080294
vt 0.449553 0.116663
vt 0.485388 0.203178
vt 0.490000 0.250000
vt 0.485388 0.296822
vt 0.471731 0.341844
vt 0.449553 0.383337
vt 0.419706 0.419706
vt 0.383337 0.449553
vt 0.750000 0.490000
vt 0.796822 0.485388
vt 0.841844 0.471731
vt 0.883337 0.449553
vt 0.919706 0.419706
vt 0.949553 0.383337
vt 0.971731 0.341844
vt 0.990000 0.250000
vt 0.985388 0.203178
vt 0.971731 0.158156
vt 0.949553 0.116663
vt 0.919706 0.080294
vt 0.883337 0.050447
vt 0.841844 0.028269
vt 0.796822 0.014612
vt 0.750000 0.010000
vt 0.703178 0.014612
vt 0.658156 0.028269
vt 0.616663 0.050447
vt 0.580294 0.080294
vt 0.550447 0.116663
vt 0.528269 0.158156
vt 0.510000 0.250000
vt 0.514612 0.296822
vt 0.528269 0.341844
vt 0.550447 0.383337
vt 0.580294 0.419706
vt 0.616663 0.449553
vt 0.658156 0.471731
vt 0.500000 0.500000
vt 0.468750 1.000000
vt 0.500000 0.937500
vt 0.500000 1.000000
vt 0.468750 0.937500
vt 0.500000 0.875000
vt 0.468750 0.875000
vt 0.500000 0.812500
vt 0.468750 0.812500
vt 0.500000 0.750000
vt 0.468750 0.750000
vt 0.500000 0.687500
vt 0.468750 0.687500
vt 0.500000 0.625000
vt 0.468750 0.625000
vt 0.937500 1.000000
vt 0.968750 0.937500
vt 0.968750 1.000000
vt 0.937500 0.937500
vt 0.968750 0.875000
vt 0.937500 0.875000
vt 0.968750 0.812500
vt 0.937500 0.812500
vt 0.968750 0.750000
vt 0.937500 0.750000
vt 0.968750 0.687500
vt 0.937500 0.687500
vt 0.968750 0.625000
vt 0.937500 0.625000
vt 0.906250 1.000000
vt 0.906250 0.937500
vt 0.906250 0.875000
vt 0.906250 0.812500
vt 0.906250 0.750000
vt 0.906250 0.687500
vt 0.906250 0.625000
vt 0.875000 1.000000
vt 0.875000 0.937500
vt 0.875000 0.875000
vt 0.875000 0.812500
vt 0.875000 0.750000
vt 0.875000 0.687500
vt 0.875000 0.625000
vt 0.843750 1.000000
vt 0.843750 0.937500
vt 0.843750 0.875000
vt 0.843750 0.812500
vt 0.843750 0.750000
vt 0.843750 0.687500
vt 0.843750 0.625000
vt 0.812500 1.000000
vt 0.812500 0.937500
vt 0.812500 0.875000
vt 0.812500 0.812500
vt 0.812500 0.750000
vt 0.812500 0.687500
vt 0.812500 0.625000
vt 0.781250 1.000000
vt 0.781250 0.937500
vt 0.781250 0.875000
vt 0.781250 0.812500
vt 0.781250 0.750000
vt 0.781250 0.687500
vt 0.781250 0.625000
vt 0.750000 1.000000
vt 0.750000 0.937500
vt 0.750000 0.875000
vt 0.750000 0.812500
vt 0.750000 0.750000
vt 0.750000 0.687500
vt 0.750000 0.625000
vt 0.718750 1.000000
vt 0.718750 0.937500
vt 0.718750 0.875000
vt 0.718750 0.812500
vt 0.718750 0.750000
vt 0.718750 0.687500
vt 0.718750 0.625000
vt 0.687500 1.000000
vt 0.687500 0.937500
vt 0.687500 0.875000
vt 0.687500 0.812500
vt 0.687500 0.750000
vt 0.687500 0.687500
vt 0.687500 0.625000
vt 0.656250 1.000000
vt 0.656250 0.937500
vt 0.656250 0.875000
vt 0.656250 0.812500
vt 0.656250 0.750000
vt 0.656250 0.687500
vt 0.656250 0.625000
vt 0.625000 1.000000
vt 0.625000 0.937500
vt 0.625000 0.875000
vt 0.625000 0.812500
vt 0.625000 0.750000
vt 0.625000 0.687500
vt 0.625000 0.625000
vt 0.593750 1.000000
vt 0.593750 0.937500
vt 0.593750 0.875000
vt 0.593750 0.812500
vt 0.593750 0.750000
vt 0.593750 0.687500
vt 0.593750 0.625000
vt 0.562500 1.000000
vt 0.562500 0.937500
vt 0.562500 0.875000
vt 0.562500 0.812500
vt 0.562500 0.750000
vt 0.562500 0.687500
vt 0.562500 0.625000
vt 0.531250 1.000000
vt 0.531250 0.937500
vt 0.531250 0.875000
vt 0.531250 0.812500
vt 0.531250 0.750000
vt 0.531250 0.687500
vt 0.531250 0.625000
vt 1.000000 0.937500
vt 1.000000 1.000000
vt 1.000000 0.875000
vt 1.000000 0.812500
vt 1.000000 0.750000
vt 1.000000 0.687500
vt 1.000000 0.625000
vt 0.437500 1.000000
vt 0.437500 0.937500
vt 0.437500 0.875000
vt 0.437500 0.812500
vt 0.437500 0.750000
vt 0.437500 0.687500
vt 0.437500 0.625000
vt 0.406250 1.000000
vt 0.406250 0.937500
vt 0.406250 0.875000
vt 0.406250 0.812500
vt 0.406250 0.750000
vt 0.406250 0.687500
vt 0.406250 0.625000
vt 0.375000 1.000000
vt 0.375000 0.937500
vt 0.375000 0.875000
vt 0.375000 0.812500
vt 0.375000 0.750000
vt 0.375000 0.687500
vt 0.375000 0.625000
vt 0.343750 1.000000
vt 0.343750 0.937500
vt 0.343750 0.875000
vt 0.343750 0.812500
vt 0.343750 0.750000
vt 0.343750 0.687500
vt 0.343750 0.625000
vt 0.312500 1.000000
vt 0.312500 0.937500
vt 0.312500 0.875000
vt 0.312500 0.812500
vt 0.312500 0.750000
vt 0.312500 0.687500
vt 0.312500 0.625000
vt 0.281250 1.000000
vt 0.281250 0.937500
vt 0.281250 0.875000
vt 0.281250 0.812500
vt 0.281250 0.750000
vt 0.281250 0.687500
vt 0.281250 0.625000
vt 0.250000 1.000000
vt 0.250000 0.937500
vt 0.250000 0.875000
vt 0.250000 0.812500
vt 0.250000 0.750000
vt 0.250000 0.687500
vt 0.250000 0.625000
vt 0.218750 1.000000
vt 0.218750 0.937500
vt 0.218750 0.875000
vt 0.218750 0.812500
vt 0.218750 0.750000
vt 0.218750 0.687500
vt 0.218750 0.625000
vt 0.187500 1.000000
vt 0.187500 0.937500
vt 0.187500 0.875000
vt 0.187500 0.812500
vt 0.187500 0.750000
vt 0.187500 0.687500
vt 0.187500 0.625000
vt 0.156250 1.000000
vt 0.156250 0.937500
vt 0.156250 0.875000
vt 0.156250 0.812500
vt 0.156250 0.750000
vt 0.156250 0.687500
vt 0.156250 0.625000
vt 0.125000 1.000000
vt 0.125000 0.937500
vt 0.125000 0.875000
vt 0.125000 0.812500
vt 0.125000 0.750000
vt 0.125000 0.687500
vt 0.125000 0.625000
vt 0.093750 1.000000
vt 0.093750 0.937500
vt 0.093750 0.875000
vt 0.093750 0.812500
vt 0.093750 0.750000
vt 0.093750 0.687500
vt 0.093750 0.625000
vt 0.062500 1.000000
vt 0.062500 0.937500
vt 0.062500 0.875000
vt 0.062500 0.812500
vt 0.062500 0.750000
vt 0.062500 0.687500
vt 0.062500 0.625000
vt 0.031250 1.000000
vt 0.031250 0.937500
vt 0.031250 0.875000
vt 0.031250 0.812500
vt 0.031250 0.750000
vt 0.031250 0.687500
vt 0.031250 0.625000
vt 0.000000 1.000000
vt 0.000000 0.937500
vt 0.000000 0.875000
vt 0.000000 0.812500
vt 0.000000 0.750000
vt 0.000000 0.687500
vt 0.000000 0.625000
vt 0.000000 0.500000
s 1
f 65/1/1 63/2/2 282/3/1
f 282/3/3 61/4/4 275/5/3
f 54/6/5 22/7/5 6/8/5
f 275/5/6 59/9/7 268/10/6
f 268/10/8 57/11/9 261/12/8
f 261/12/10 55/13/11 254/14/10
f 254/14/12 53/15/13 247/16/12
f 247/16/14 51/17/15 240/18/14
f 240/18/16 49/19/17 233/20/16
f 233/20/18 47/21/19 226/22/18
f 226/22/20 45/23/21 219/24/20
f 219/24/22 43/25/23 212/26/22
f 212/26/24 41/27/25 205/28/24
f 205/28/26 39/29/27 198/30/26
f 198/30/28 37/31/29 191/32/28
f 191/32/30 35/33/31 184/34/30
f 72/35/32 1/36/33 65/37/32
f 15/38/34 47/39/34 63/40/34
f 177/41/35 31/42/36 170/43/35
f 170/43/37 29/44/38 163/45/37
f 163/45/39 27/46/40 156/47/39
f 156/47/41 25/48/42 149/49/41
f 149/49/43 23/50/44 142/51/43
f 142/51/45 21/52/46 135/53/45
f 135/53/47 19/54/48 128/55/47
f 128/55/49 17/56/50 121/57/49
f 121/57/51 15/58/52 114/59/51
f 114/59/53 13/60/54 107/61/53
f 107/61/55 11/62/56 100/63/55
f 100/63/57 9/64/58 93/65/57
f 93/65/59 7/66/60 86/67/59
f 86/67/61 5/68/62 79/69/61
f 79/69/63 3/70/64 72/35/63
f 6/8/5 4/71/5 2/72/5
f 2/72/5 64/73/5 62/74/5
f 62/74/5 60/75/5 58/76/5
f 58/76/5 56/77/5 54/6/5
f 54/6/5 52/78/5 50/79/5
f 50/79/5 48/80/5 46/81/5
f 46/81/5 44/82/5 42/83/5
f 42/83/5 40/84/5 38/85/5
f 38/85/5 36/86/5 34/87/5
f 34/87/5 32/88/5 30/89/5
f 30/89/5 28/90/5 26/91/5
f 26/91/5 24/92/5 22/7/5
f 22/7/5 20/93/5 18/94/5
f 18/94/5 16/95/5 14/96/5
f 14/96/5 12/97/5 10/98/5
f 10/98/5 8/99/5 6/8/5
f 6/8/5 2/72/5 62/74/5
f 62/74/5 58/76/5 54/6/5
f 54/6/5 50/79/5 46/81/5
f 46/81/5 42/83/5 38/85/5
f 38/85/5 34/87/5 30/89/5
f 30/89/5 26/91/5 22/7/5
f 22/7/5 18/94/5 14/96/5
f 14/96/5 10/98/5 6/8/5
f 6/8/5 62/74/5 54/6/5
f 54/6/5 46/81/5 38/85/5
f 38/85/5 30/89/5 22/7/5
f 22/7/5 14/96/5 6/8/5
f 63/40/34 1/100/34 3/101/34
f 3/101/34 5/102/34 7/103/34
f 7/103/34 9/104/34 11/105/34
f 11/105/34 13/106/34 15/38/34
f 15/38/34 17/107/34 19/108/34
f 19/108/34 21/109/34 23/110/34
f 23/110/34 25/111/34 27/112/34
f 27/112/34 29/113/34 31/114/34
f 31/114/34 33/115/34 35/116/34
f 35/116/34 37/117/34 39/118/34
f 39/118/34 41/119/34 43/120/34
f 43/120/34 45/121/34 47/39/34
f 47/39/34 49/122/34 51/123/34
f 51/123/34 53/124/34 55/125/34
f 55/125/34 57/126/34 59/127/34
f 59/127/34 61/128/34 63/40/34
f 63/40/34 3/101/34 7/103/34
f 7/103/34 11/105/34 15/38/34
f 15/38/34 19/108/34 23/110/34
f 23/110/34 27/112/34 31/114/34
f 31/114/34 35/116/34 39/118/34
f 39/118/34 43/120/34 47/39/34
f 47/39/34 51/123/34 55/125/34
f 55/125/34 59/127/34 63/40/34
f 63/40/34 7/103/34 15/38/34
f 15/38/34 23/110/34 31/114/34
f 31/114/34 39/118/34 47/39/34
f 47/39/34 55/125/34 63/40/34
f 184/34/65 33/129/66 177/41/65
f 36/130/67 183/131/68 34/132/67
f 190/133/68 182/134/69 183/131/68
f 189/135/69 181/136/70 182/134/69
f 188/137/70 180/138/71 181/136/70
f 187/139/71 179/140/72 180/138/71
f 186/141/72 178/142/73 179/140/72
f 185/143/73 177/41/65 178/142/73
f 6/144/74 78/145/75 4/146/74
f 85/147/75 77/148/76 78/145/75
f 84/149/76 76/150/77 77/148/76
f 83/151/77 75/152/78 76/150/77
f 82/153/78 74/154/79 75/152/78
f 81/155/79 73/156/80 74/154/79
f 80/157/80 72/35/63 73/156/80
f 8/158/81 85/147/82 6/144/81
f 92/159/82 84/149/83 85/147/82
f 91/160/83 83/151/84 84/149/83
f 90/161/84 82/153/85 83/151/84
f 89/162/85 81/155/86 82/153/85
f 88/163/86 80/157/87 81/155/86
f 87/164/87 79/69/61 80/157/87
f 10/165/88 92/159/89 8/158/88
f 99/166/89 91/160/90 92/159/89
f 98/167/90 90/161/91 91/160/90
f 97/168/91 89/162/92 90/161/91
f 96/169/92 88/163/93 89/162/92
f 95/170/93 87/164/94 88/163/93
f 94/171/94 86/67/59 87/164/94
f 12/172/95 99/166/96 10/165/95
f 106/173/96 98/167/97 99/166/96
f 105/174/97 97/168/98 98/167/97
f 104/175/98 96/169/99 97/168/98
f 103/176/99 95/170/100 96/169/99
f 102/177/100 94/171/101 95/170/100
f 101/178/101 93/65/57 94/171/101
f 14/179/102 106/173/103 12/172/102
f 113/180/103 105/174/104 106/173/103
f 112/181/104 104/175/105 105/174/104
f 111/182/105 103/176/106 104/175/105
f 110/183/106 102/177/107 103/176/106
f 109/184/107 101/178/108 102/177/107
f 108/185/108 100/63/55 101/178/108
f 16/186/109 113/180/110 14/179/109
f 120/187/110 112/181/111 113/180/110
f 119/188/111 111/182/112 112/181/111
f 118/189/112 110/183/113 111/182/112
f 117/190/113 109/184/114 110/183/113
f 116/191/114 108/185/115 109/184/114
f 115/192/115 107/61/53 108/185/115
f 18/193/116 120/187/117 16/186/116
f 127/194/117 119/188/118 120/187/117
f 126/195/118 118/189/119 119/188/118
f 125/196/119 117/190/120 118/189/119
f 124/197/120 116/191/121 117/190/120
f 123/198/121 115/192/122 116/191/121
f 122/199/122 114/59/51 115/192/122
f 20/200/123 127/194/124 18/193/123
f 134/201/124 126/195/125 127/194/124
f 133/202/125 125/196/126 126/195/125
f 132/203/126 124/197/127 125/196/126
f 131/204/127 123/198/128 124/197/127
f 130/205/128 122/199/129 123/198/128
f 129/206/129 121/57/49 122/199/129
f 22/207/130 134/201/131 20/200/130
f 141/208/131 133/202/132 134/201/131
f 140/209/132 132/203/133 133/202/132
f 139/210/133 131/204/134 132/203/133
f 138/211/134 130/205/135 131/204/134
f 137/212/135 129/206/136 130/205/135
f 136/213/136 128/55/47 129/206/136
f 24/214/137 141/208/138 22/207/139
f 148/215/138 140/209/140 141/208/138
f 147/216/140 139/210/141 140/209/140
f 146/217/141 138/211/142 139/210/141
f 145/218/142 137/212/143 138/211/142
f 144/219/143 136/213/144 137/212/143
f 143/220/144 135/53/45 136/213/144
f 26/221/145 148/215/146 24/214/145
f 155/222/146 147/216/147 148/215/146
f 154/223/147 146/217/148 147/216/147
f 153/224/148 145/218/149 146/217/148
f 152/225/149 144/219/150 145/218/149
f 151/226/150 143/220/151 144/219/150
f 150/227/151 142/51/43 143/220/151
f 28/228/152 155/222/153 26/221/152
f 162/229/153 154/223/154 155/222/153
f 161/230/154 153/224/155 154/223/154
f 160/231/155 152/225/156 153/224/155
f 159/232/156 151/226/157 152/225/156
f 158/233/157 150/227/158 151/226/157
f 157/234/158 149/49/41 150/227/158
f 30/235/159 162/229/160 28/228/161
f 169/236/160 161/230/162 162/229/160
f 168/237/162 160/231/163 161/230/162
f 167/238/163 159/232/164 160/231/163
f 166/239/164 158/233/165 159/232/164
f 165/240/165 157/234/166 158/233/165
f 164/241/166 156/47/39 157/234/166
f 32/242/167 169/236/168 30/235/167
f 176/243/168 168/237/169 169/236/168
f 175/244/169 167/238/170 168/237/169
f 174/245/170 166/239/171 167/238/170
f 173/246/171 165/240/172 166/239/171
f 172/247/172 164/241/173 165/240/172
f 171/248/173 163/45/37 164/241/173
f 34/132/174 176/243/175 32/242/174
f 183/131/175 175/244/176 176/243/175
f 182/134/176 174/245/177 175/244/176
f 181/136/177 173/246/178 174/245/177
f 180/138/178 172/247/179 173/246/178
f 179/140/179 171/248/180 172/247/179
f 178/142/180 170/43/35 171/248/180
f 4/146/181 71/249/182 2/250/181
f 78/145/182 70/251/183 71/249/182
f 77/148/183 69/252/184 70/251/183
f 76/150/184 68/253/185 69/252/184
f 75/152/185 67/254/186 68/253/185
f 74/154/186 66/255/187 67/254/186
f 73/156/187 65/37/32 66/255/187
f 38/256/188 190/133/189 36/130/188
f 197/257/189 189/135/190 190/133/189
f 196/258/190 188/137/191 189/135/190
f 195/259/191 187/139/192 188/137/191
f 194/260/192 186/141/193 187/139/192
f 193/261/193 185/143/194 186/141/193
f 192/262/194 184/34/30 185/143/194
f 40/263/195 197/257/196 38/256/195
f 204/264/196 196/258/197 197/257/196
f 203/265/197 195/259/198 196/258/197
f 202/266/198 194/260/199 195/259/198
f 201/267/199 193/261/200 194/260/199
f 200/268/200 192/262/201 193/261/200
f 199/269/201 191/32/28 192/262/201
f 42/270/202 204/264/203 40/263/202
f 211/271/203 203/265/204 204/264/203
f 210/272/204 202/266/205 203/265/204
f 209/273/205 201/267/206 202/266/205
f 208/274/206 200/268/207 201/267/206
f 207/275/207 199/269/208 200/268/207
f 206/276/208 198/30/26 199/269/208
f 44/277/209 211/271/210 42/270/209
f 218/278/210 210/272/211 211/271/210
f 217/279/211 209/273/212 210/272/211
f 216/280/212 208/274/213 209/273/212
f 215/281/213 207/275/214 208/274/213
f 214/282/214 206/276/215 207/275/214
f 213/283/215 205/28/24 206/276/215
f 46/284/216 218/278/217 44/277/216
f 225/285/217 217/279/218 218/278/217
f 224/286/218 216/280/219 217/279/218
f 223/287/219 215/281/220 216/280/219
f 222/288/220 214/282/221 215/281/220
f 221/289/221 213/283/222 214/282/221
f 220/290/222 212/26/22 213/283/222
f 48/291/223 225/285/224 46/284/223
f 232/292/224 224/286/225 225/285/224
f 231/293/225 223/287/226 224/286/225
f 230/294/226 222/288/227 223/287/226
f 229/295/227 221/289/228 222/288/227
f 228/296/228 220/290/229 221/289/228
f 227/297/229 219/24/20 220/290/229
f 50/298/230 232/292/231 48/291/230
f 239/299/231 231/293/232 232/292/231
f 238/300/232 230/294/233 231/293/232
f 237/301/233 229/295/234 230/294/233
f 236/302/234 228/296/235 229/295/234
f 235/303/235 227/297/236 228/296/235
f 234/304/236 226/22/18 227/297/236
f 52/305/237 239/299/238 50/298/237
f 246/306/238 238/300/239 239/299/238
f 245/307/239 237/301/240 238/300/239
f 244/308/240 236/302/241 237/301/240
f 243/309/241 235/303/242 236/302/241
f 242/310/242 234/304/243 235/303/242
f 241/311/243 233/20/16 234/304/243
f 54/312/244 246/306/245 52/305/244
f 253/313/245 245/307/246 246/306/245
f 252/314/246 244/308/247 245/307/246
f 251/315/247 243/309/248 244/308/247
f 250/316/248 242/310/249 243/309/248
f 249/317/249 241/311/250 242/310/249
f 248/318/250 240/18/14 241/311/250
f 56/319/251 253/313/252 54/312/251
f 260/320/252 252/314/253 253/313/252
f 259/321/253 251/315/254 252/314/253
f 258/322/254 250/316/255 251/315/254
f 257/323/255 249/317/256 250/316/255
f 256/324/256 248/318/257 249/317/256
f 255/325/257 247/16/12 248/318/257
f 58/326/258 260/320/259 56/319/258
f 267/327/259 259/321/260 260/320/259
f 266/328/260 258/322/261 259/321/260
f 265/329/261 257/323/262 258/322/261
f 264/330/262 256/324/263 257/323/262
f 263/331/263 255/325/264 256/324/263
f 262/332/264 254/14/10 255/325/264
f 60/333/265 267/327/266 58/326/265
f 274/334/266 266/328/267 267/327/266
f 273/335/267 265/329/268 266/328/267
f 272/336/268 264/330/269 265/329/268
f 271/337/269 263/331/270 264/330/269
f 270/338/270 262/332/271 263/331/270
f 269/339/271 261/12/8 262/332/271
f 62/340/272 274/334/273 60/333/272
f 281/341/273 273/335/274 274/334/273
f 280/342/274 272/336/275 273/335/274
f 279/343/275 271/337/276 272/336/275
f 278/344/276 270/338/277 271/337/276
f 277/345/277 269/339/278 270/338/277
f 276/346/278 268/10/6 269/339/278
f 64/347/279 281/341/280 62/340/279
f 288/348/280 280/342/281 281/341/280
f 287/349/281 279/343/282 280/342/281
f 286/350/282 278/344/283 279/343/282
f 285/351/283 277/345/284 278/344/283
f 284/352/284 276/346/285 277/345/284
f 283/353/285 275/5/3 276/346/285
f 2/354/286 288/348/287 64/347/286
f 71/355/287 287/349/288 288/348/287
f 70/356/288 286/350/289 287/349/288
f 69/357/289 285/351/290 286/350/289
f 68/358/290 284/352/291 285/351/290
f 67/359/291 283/353/292 284/352/291
f 66/360/292 282/3/1 283/353/292
f 65/1/1 1/361/2 63/2/2
f 282/3/3 63/2/4 61/4/4
f 54/6/5 38/85/5 22/7/5
f 275/5/6 61/4/7 59/9/7
f 268/10/8 59/9/9 57/11/9
f 261/12/10 57/11/11 55/13/11
f 254/14/12 55/13/13 53/15/13
f 247/16/14 53/15/15 51/17/15
f 240/18/16 51/17/17 49/19/17
f 233/20/18 49/19/19 47/21/19
f 226/22/20 47/21/21 45/23/21
f 219/24/22 45/23/23 43/25/23
f 212/26/24 43/25/25 41/27/25
f 205/28/26 41/27/27 39/29/27
f 198/30/28 39/29/29 37/31/29
f 191/32/30 37/31/31 35/33/31
f 72/35/32 3/70/33 1/36/33
f 15/38/34 31/114/34 47/39/34
f 177/41/35 33/129/36 31/42/36
f 170/43/37 31/42/38 29/44/38
f 163/45/39 29/44/40 27/46/40
f 156/47/41 27/46/42 25/48/42
f 149/49/43 25/48/44 23/50/44
f 142/51/45 23/50/293 21/52/46
f 135/53/47 21/52/48 19/54/48
f 128/55/49 19/54/50 17/56/50
f 121/57/51 17/56/52 15/58/52
f 114/59/53 15/58/54 13/60/54
f 107/61/55 13/60/56 11/62/56
f 100/63/57 11/62/58 9/64/58
f 93/65/59 9/64/60 7/66/60
f 86/67/61 7/66/62 5/68/62
f 79/69/63 5/68/64 3/70/64
f 184/34/65 35/33/66 33/129/66
f 36/130/67 190/133/68 183/131/68
f 190/133/68 189/135/69 182/134/69
f 189/135/69 188/137/70 181/136/70
f 188/137/70 187/139/71 180/138/71
f 187/139/71 186/141/72 179/140/72
f 186/141/72 185/143/73 178/142/73
f 185/143/73 184/34/65 177/41/65
f 6/144/74 85/147/75 78/145/75
f 85/147/75 84/149/76 77/148/76
f 84/149/76 83/151/77 76/150/77
f 83/151/77 82/153/78 75/152/78
f 82/153/78 81/155/79 74/154/79
f 81/155/79 80/157/80 73/156/80
f 80/157/80 79/69/63 72/35/63
f 8/158/81 92/159/82 85/147/82
f 92/159/82 91/160/83 84/149/83
f 91/160/83 90/161/84 83/151/84
f 90/161/84 89/162/85 82/153/85
f 89/162/85 88/163/86 81/155/86
f 88/163/86 87/164/87 80/157/87
f 87/164/87 86/67/61 79/69/61
f 10/165/88 99/166/89 92/159/89
f 99/166/89 98/167/90 91/160/90
f 98/167/90 97/168/91 90/161/91
f 97/168/91 96/169/92 89/162/92
f 96/169/92 95/170/93 88/163/93
f 95/170/93 94/171/94 87/164/94
f 94/171/94 93/65/59 86/67/59
f 12/172/95 106/173/96 99/166/96
f 106/173/96 105/174/97 98/167/97
f 105/174/97 104/175/98 97/168/98
f 104/175/98 103/176/99 96/169/99
f 103/176/99 102/177/100 95/170/100
f 102/177/100 101/178/101 94/171/101
f 101/178/101 100/63/57 93/65/57
f 14/179/102 113/180/103 106/173/103
f 113/180/103 112/181/104 105/174/104
f 112/181/104 111/182/105 104/175/105
f 111/182/105 110/183/106 103/176/106
f 110/183/106 109/184/107 102/177/107
f 109/184/107 108/185/108 101/178/108
f 108/185/108 107/61/55 100/63/55
f 16/186/109 120/187/110 113/180/110
f 120/187/110 119/188/111 112/181/111
f 119/188/111 118/189/112 111/182/112
f 118/189/112 117/190/113 110/183/113
f 117/190/113 116/191/114 109/184/114
f 116/191/114 115/192/115 108/185/115
f 115/192/115 114/59/53 107/61/53
f 18/193/116 127/194/117 120/187/117
f 127/194/117 126/195/118 119/188/118
f 126/195/118 125/196/119 118/189/119
f 125/196/119 124/197/120 117/190/120
f 124/197/120 123/198/121 116/191/121
f 123/198/121 122/199/122 115/192/122
f 122/199/122 121/57/51 114/59/51
f 20/200/123 134/201/124 127/194/124
f 134/201/124 133/202/125 126/195/125
f 133/202/125 132/203/126 125/196/126
f 132/203/126 131/204/127 124/197/127
f 131/204/127 130/205/128 123/198/128
f 130/205/128 129/206/129 122/199/129
f 129/206/129 128/55/49 121/57/49
f 22/207/130 141/208/131 134/201/131
f 141/208/131 140/209/132 133/202/132
f 140/209/132 139/210/133 132/203/133
f 139/210/133 138/211/134 131/204/134
f 138/211/134 137/212/135 130/205/135
f 137/212/135 136/213/136 129/206/136
f 136/213/136 135/53/47 128/55/47
f 24/214/137 148/215/138 141/208/138
f 148/215/138 147/216/140 140/209/140
f 147/216/140 146/217/141 139/210/141
f 146/217/141 145/218/142 138/211/142
f 145/218/142 144/219/143 137/212/143
f 144/219/143 143/220/144 136/213/144
f 143/220/144 142/51/45 135/53/45
f 26/221/145 155/222/146 148/215/146
f 155/222/146 154/223/147 147/216/147
f 154/223/147 153/224/148 146/217/148
f 153/224/148 152/225/149 145/218/149
f 152/225/149 151/226/150 144/219/150
f 151/226/150 150/227/151 143/220/151
f 150/227/151 149/49/43 142/51/43
f 28/228/152 162/229/153 155/222/153
f 162/229/153 161/230/154 154/223/154
f 161/230/154 160/231/155 153/224/155
f 160/231/155 159/232/156 152/225/156
f 159/232/156 158/233/157 151/226/157
f 158/233/157 157/234/158 150/227/158
f 157/234/158 156/47/41 149/49/41
f 30/235/159 169/236/160 162/229/160
f 169/236/160 168/237/162 161/230/162
f 168/237/162 167/238/163 160/231/163
f 167/238/163 166/239/164 159/232/164
f 166/239/164 165/240/165 158/233/165
f 165/240/165 164/241/166 157/234/166
f 164/241/166 163/45/39 156/47/39
f 32/242/167 176/243/168 169/236/168
f 176/243/168 175/244/169 168/237/169
f 175/244/169 174/245/170 167/238/170
f 174/245/170 173/246/171 166/239/171
f 173/246/171 172/247/172 165/240/172
f 172/247/172 171/248/173 164/241/173
f 171/248/173 170/43/37 163/45/37
f 34/132/174 183/131/175 176/243/175
f 183/131/175 182/134/176 175/244/176
f 182/134/176 181/136/177 174/245/177
f 181/136/177 180/138/178 173/246/178
f 180/138/178 179/140/179 172/247/179
f 179/140/179 178/142/180 171/248/180
f 178/142/180 177/41/35 170/43/35
f 4/146/181 78/145/182 71/249/182
f 78/145/182 77/148/183 70/251/183
f 77/148/183 76/150/184 69/252/184
f 76/150/184 75/152/185 68/253/185
f 75/152/185 74/154/186 67/254/186
f 74/154/186 73/156/187 66/255/187
f 73/156/187 72/35/32 65/37/32
f 38/256/188 197/257/189 190/133/189
f 197/257/189 196/258/190 189/135/190
f 196/258/190 195/259/191 188/137/191
f 195/259/191 194/260/192 187/139/192
f 194/260/192 193/261/193 186/141/193
f 193/261/193 192/262/194 185/143/194
f 192/262/194 191/32/30 184/34/30
f 40/263/195 204/264/196 197/257/196
f 204/264/196 203/265/197 196/258/197
f 203/265/197 202/266/198 195/259/198
f 202/266/198 201/267/199 194/260/199
f 201/267/199 200/268/200 193/261/200
f 200/268/200 199/269/201 192/262/201
f 199/269/201 198/30/28 191/32/28
f 42/270/202 211/271/203 204/264/203
f 211/271/203 210/272/204 203/265/204
f 210/272/204 209/273/205 202/266/205
f 209/273/205 208/274/206 201/267/206
f 208/274/206 207/275/207 200/268/207
f 207/275/207 206/276/208 199/269/208
f 206/276/208 205/28/26 198/30/26
f 44/277/209 218/278/210 211/271/210
f 218/278/210 217/279/211 210/272/211
f 217/279/211 216/280/212 209/273/212
f 216/280/212 215/281/213 208/274/213
f 215/281/213 214/282/214 207/275/214
f 214/282/214 213/283/215 206/276/215
f 213/283/215 212/26/24 205/28/24
f 46/284/216 225/285/217 218/278/217
f 225/285/217 224/286/218 217/279/218
f 224/286/218 223/287/219 216/280/219
f 223/287/219 222/288/220 215/281/220
f 222/288/220 221/289/221 214/282/221
f 221/289/221 220/290/222 213/283/222
f 220/290/222 219/24/22 212/26/22
f 48/291/223 232/292/224 225/285/224
f 232/292/224 231/293/225 224/286/225
f 231/293/225 230/294/226 223/287/226
f 230/294/226 229/295/227 222/288/227
f 229/295/227 228/296/228 221/289/228
f 228/296/228 227/297/229 220/290/229
f 227/297/229 226/22/20 219/24/20
f 50/298/230 239/299/231 232/292/231
f 239/299/231 238/300/232 231/293/232
f 238/300/232 237/301/233 230/294/233
f 237/301/233 236/302/234 229/295/234
f 236/302/234 235/303/235 228/296/235
f 235/303/235 234/304/236 227/297/236
f 234/304/236 233/20/18 226/22/18
f 52/305/237 246/306/238 239/299/238
f 246/306/238 245/307/239 238/300/239
f 245/307/239 244/308/240 237/301/240
f 244/308/240 243/309/241 236/302/241
f 243/309/241 242/310/242 235/303/242
f 242/310/242 241/311/243 234/304/243
f 241/311/243 240/18/16 233/20/16
f 54/312/244 253/313/245 246/306/245
f 253/313/245 252/314/246 245/307/246
f 252/314/246 251/315/247 244/308/247
f 251/315/247 250/316/248 243/309/248
f 250/316/248 249/317/249 242/310/249
f 249/317/249 248/318/250 241/311/250
f 248/318/250 247/16/14 240/18/14
f 56/319/251 260/320/252 253/313/252
f 260/320/252 259/321/253 252/314/253
f 259/321/253 258/322/254 251/315/254
f 258/322/254 257/323/255 250/316/255
f 257/323/255 256/324/256 249/317/256
f 256/324/256 255/325/257 248/318/257
f 255/325/257 254/14/12 247/16/12
f 58/326/258 267/327/259 260/320/259
f 267/327/259 266/328/260 259/321/260
f 266/328/260 265/329/261 258/322/261
f 265/329/261 264/330/262 257/323/262
f 264/330/262 263/331/263 256/324/263
f 263/331/263 262/332/264 255/325/264
f 262/332/264 261/12/10 254/14/10
f 60/333/265 274/334/266 267/327/266
f 274/334/266 273/335/267 266/328/267
f 273/335/267 272/336/268 265/329/268
f 272/336/268 271/337/269 264/330/269
f 271/337/269 270/338/270 263/331/270
f 270/338/270 269/339/271 262/332/271
f 269/339/271 268/10/8 261/12/8
f 62/340/272 281/341/273 274/334/273
f 281/341/273 280/342/274 273/335/274
f 280/342/274 279/343/275 272/336/275
f 279/343/275 278/344/276 271/337/276
f 278/344/276 277/345/277 270/338/277
f 277/345/277 276/346/278 269/339/278
f 276/346/278 275/5/6 268/10/6
f 64/347/279 288/348/280 281/341/280
f 288/348/280 287/349/281 280/342/281
f 287/349/281 286/350/282 279/343/282
f 286/350/282 285/351/283 278/344/283
f 285/351/283 284/352/284 277/345/284
f 284/352/284 283/353/285 276/346/285
f 283/353/285 282/3/3 275/5/3
f 2/354/286 71/355/287 288/348/287
f 71/355/287 70/356/288 287/349/288
f 70/356/288 69/357/289 286/350/289
f 69/357/289 68/358/290 285/351/290
f 68/358/290 67/359/291 284/352/291
f 67/359/291 66/360/292 283/353/292
f 66/360/292 65/1/1 282/3/1
