# Blender 4.3.2
# www.blender.org
mtllib Cylinder.mtl
o Cylinder
v 0.000000 -1.000000 -1.000000
v 0.000000 1.000000 -1.000000
v 0.195090 -1.000000 -0.980785
v 0.195090 1.000000 -0.980785
v 0.382683 -1.000000 -0.923880
v 0.382683 1.000000 -0.923880
v 0.555570 -1.000000 -0.831470
v 0.555570 1.000000 -0.831470
v 0.707107 -1.000000 -0.707107
v 0.707107 1.000000 -0.707107
v 0.831470 -1.000000 -0.555570
v 0.831470 1.000000 -0.555570
v 0.923880 -1.000000 -0.382683
v 0.923880 1.000000 -0.382683
v 0.980785 -1.000000 -0.195090
v 0.980785 1.000000 -0.195090
v 1.000000 -1.000000 0.000000
v 1.000000 1.000000 -0.000000
v 0.980785 -1.000000 0.195090
v 0.980785 1.000000 0.195090
v 0.923880 -1.000000 0.382683
v 0.923880 1.000000 0.382683
v 0.831470 -1.000000 0.555570
v 0.831470 1.000000 0.555570
v 0.707107 -1.000000 0.707107
v 0.707107 1.000000 0.707107
v 0.555570 -1.000000 0.831470
v 0.555570 1.000000 0.831470
v 0.382683 -1.000000 0.923880
v 0.382683 1.000000 0.923880
v 0.195090 -1.000000 0.980785
v 0.195090 1.000000 0.980785
v 0.000000 -1.000000 1.000000
v 0.000000 1.000000 1.000000
v -0.195090 -1.000000 0.980785
v -0.195090 1.000000 0.980785
v -0.382683 -1.000000 0.923880
v -0.382683 1.000000 0.923880
v -0.555570 -1.000000 0.831470
v -0.555570 1.000000 0.831470
v -0.707107 -1.000000 0.707107
v -0.707107 1.000000 0.707107
v -0.831470 -1.000000 0.555570
v -0.831470 1.000000 0.555570
v -0.923880 -1.000000 0.382683
v -0.923880 1.000000 0.382683
v -0.980785 -1.000000 0.195090
v -0.980785 1.000000 0.195090
v -1.000000 -1.000000 0.000000
v -1.000000 1.000000 -0.000000
v -0.980785 -1.000000 -0.195090
v -0.980785 1.000000 -0.195090
v -0.923880 -1.000000 -0.382683
v -0.923880 1.000000 -0.382683
v -0.831470 -1.000000 -0.555570
v -0.831470 1.000000 -0.555570
v -0.707107 -1.000000 -0.707107
v -0.707107 1.000000 -0.707107
v -0.555570 -1.000000 -0.831470
v -0.555570 1.000000 -0.831470
v -0.382683 -1.000000 -0.923880
v -0.382683 1.000000 -0.923880
v -0.195090 -1.000000 -0.980785
v -0.195090 1.000000 -0.980785
v 0.000000 -0.750000 -1.000000
v 0.000000 -0.500000 -1.000000
v 0.000000 -0.250000 -1.000000
v 0.000000 -0.000000 -1.000000
v 0.000000 0.250000 -1.000000
v 0.000000 0.500000 -1.000000
v 0.000000 0.750000 -1.000000
v 0.195090 -0.750000 -0.980785
v 0.195090 -0.500000 -0.980785
v 0.195090 -0.250000 -0.980785
v 0.195090 -0.000000 -0.980785
v 0.195090 0.250000 -0.980785
v 0.195090 0.500000 -0.980785
v 0.195090 0.750000 -0.980785
v 0.382683 -0.750000 -0.923880
v 0.382683 -0.500000 -0.923880
v 0.382683 -0.250000 -0.923880
v 0.382683 -0.000000 -0.923880
v 0.382683 0.250000 -0.923880
v 0.382683 0.500000 -0.923880
v 0.382683 0.750000 -0.923880
v 0.555570 -0.750000 -0.831470
v 0.555570 -0.500000 -0.831470
v 0.555570 -0.250000 -0.831470
v 0.555570 -0.000000 -0.831470
v 0.555570 0.250000 -0.831470
v 0.555570 0.500000 -0.831470
v 0.555570 0.750000 -0.831470
v 0.707107 -0.750000 -0.707107
v 0.707107 -0.500000 -0.707107
v 0.707107 -0.250000 -0.707107
v 0.707107 -0.000000 -0.707107
v 0.707107 0.250000 -0.707107
v 0.707107 0.500000 -0.707107
v 0.707107 0.750000 -0.707107
v 0.831470 -0.750000 -0.555570
v 0.831470 -0.500000 -0.555570
v 0.831470 -0.250000 -0.555570
v 0.831470 -0.000000 -0.555570
v 0.831470 0.250000 -0.555570
v 0.831470 0.500000 -0.555570
v 0.831470 0.750000 -0.555570
v 0.923880 -0.750000 -0.382683
v 0.923880 -0.500000 -0.382683
v 0.923880 -0.250000 -0.382683
v 0.923880 -0.000000 -0.382683
v 0.923880 0.250000 -0.382683
v 0.923880 0.500000 -0.382683
v 0.923880 0.750000 -0.382683
v 0.980785 -0.750000 -0.195090
v 0.980785 -0.500000 -0.195090
v 0.980785 -0.250000 -0.195090
v 0.980785 -0.000000 -0.195090
v 0.980785 0.250000 -0.195090
v 0.980785 0.500000 -0.195090
v 0.980785 0.750000 -0.195090
v 1.000000 -0.750000 0.000000
v 1.000000 -0.500000 0.000000
v 1.000000 -0.250000 0.000000
v 1.000000 0.000000 0.000000
v 1.000000 0.250000 -0.000000
v 1.000000 0.500000 -0.000000
v 1.000000 0.750000 -0.000000
v 0.980785 -0.750000 0.195090
v 0.980785 -0.500000 0.195090
v 0.980785 -0.250000 0.195090
v 0.980785 0.000000 0.195090
v 0.980785 0.250000 0.195090
v 0.980785 0.500000 0.195090
v 0.980785 0.750000 0.195090
v 0.923880 -0.750000 0.382683
v 0.923880 -0.500000 0.382683
v 0.923880 -0.250000 0.382683
v 0.923880 0.000000 0.382683
v 0.923880 0.250000 0.382683
v 0.923880 0.500000 0.382683
v 0.923880 0.750000 0.382683
v 0.831470 -0.750000 0.555570
v 0.831470 -0.500000 0.555570
v 0.831470 -0.250000 0.555570
v 0.831470 0.000000 0.555570
v 0.831470 0.250000 0.555570
v 0.831470 0.500000 0.555570
v 0.831470 0.750000 0.555570
v 0.707107 -0.750000 0.707107
v 0.707107 -0.500000 0.707107
v 0.707107 -0.250000 0.707107
v 0.707107 0.000000 0.707107
v 0.707107 0.250000 0.707107
v 0.707107 0.500000 0.707107
v 0.707107 0.750000 0.707107
v 0.555570 -0.750000 0.831470
v 0.555570 -0.500000 0.831470
v 0.555570 -0.250000 0.831470
v 0.555570 0.000000 0.831470
v 0.555570 0.250000 0.831470
v 0.555570 0.500000 0.831470
v 0.555570 0.750000 0.831470
v 0.382683 -0.750000 0.923880
v 0.382683 -0.500000 0.923880
v 0.382683 -0.250000 0.923880
v 0.382683 0.000000 0.923880
v 0.382683 0.250000 0.923880
v 0.382683 0.500000 0.923880
v 0.382683 0.750000 0.923880
v 0.195090 -0.750000 0.980785
v 0.195090 -0.500000 0.980785
v 0.195090 -0.250000 0.980785
v 0.195090 0.000000 0.980785
v 0.195090 0.250000 0.980785
v 0.195090 0.500000 0.980785
v 0.195090 0.750000 0.980785
v 0.000000 -0.750000 1.000000
v 0.000000 -0.500000 1.000000
v 0.000000 -0.250000 1.000000
v 0.000000 0.000000 1.000000
v 0.000000 0.250000 1.000000
v 0.000000 0.500000 1.000000
v 0.000000 0.750000 1.000000
v -0.195090 -0.750000 0.980785
v -0.195090 -0.500000 0.980785
v -0.195090 -0.250000 0.980785
v -0.195090 0.000000 0.980785
v -0.195090 0.250000 0.980785
v -0.195090 0.500000 0.980785
v -0.195090 0.750000 0.980785
v -0.382683 -0.750000 0.923880
v -0.382683 -0.500000 0.923880
v -0.382683 -0.250000 0.923880
v -0.382683 0.000000 0.923880
v -0.382683 0.250000 0.923880
v -0.382683 0.500000 0.923880
v -0.382683 0.750000 0.923880
v -0.555570 -0.750000 0.831470
v -0.555570 -0.500000 0.831470
v -0.555570 -0.250000 0.831470
v -0.555570 0.000000 0.831470
v -0.555570 0.250000 0.831470
v -0.555570 0.500000 0.831470
v -0.555570 0.750000 0.831470
v -0.707107 -0.750000 0.707107
v -0.707107 -0.500000 0.707107
v -0.707107 -0.250000 0.707107
v -0.707107 0.000000 0.707107
v -0.707107 0.250000 0.707107
v -0.707107 0.500000 0.707107
v -0.707107 0.750000 0.707107
v -0.831470 -0.750000 0.555570
v -0.831470 -0.500000 0.555570
v -0.831470 -0.250000 0.555570
v -0.831470 0.000000 0.555570
v -0.831470 0.250000 0.555570
v -0.831470 0.500000 0.555570
v -0.831470 0.750000 0.555570
v -0.923880 -0.750000 0.382683
v -0.923880 -0.500000 0.382683
v -0.923880 -0.250000 0.382683
v -0.923880 0.000000 0.382683
v -0.923880 0.250000 0.382683
v -0.923880 0.500000 0.382683
v -0.923880 0.750000 0.382683
v -0.980785 -0.750000 0.195090
v -0.980785 -0.500000 0.195090
v -0.980785 -0.250000 0.195090
v -0.980785 0.000000 0.195090
v -0.980785 0.250000 0.195090
v -0.980785 0.500000 0.195090
v -0.980785 0.750000 0.195090
v -1.000000 -0.750000 0.000000
v -1.000000 -0.500000 0.000000
v -1.000000 -0.250000 0.000000
v -1.000000 0.000000 0.000000
v -1.000000 0.250000 -0.000000
v -1.000000 0.500000 -0.000000
v -1.000000 0.750000 -0.000000
v -0.980785 -0.750000 -0.195090
v -0.980785 -0.500000 -0.195090
v -0.980785 -0.250000 -0.195090
v -0.980785 -0.000000 -0.195090
v -0.980785 0.250000 -0.195090
v -0.980785 0.500000 -0.195090
v -0.980785 0.750000 -0.195090
v -0.923880 -0.750000 -0.382683
v -0.923880 -0.500000 -0.382683
v -0.923880 -0.250000 -0.382683
v -0.923880 -0.000000 -0.382683
v -0.923880 0.250000 -0.382683
v -0.923880 0.500000 -0.382683
v -0.923880 0.750000 -0.382683
v -0.831470 -0.750000 -0.555570
v -0.831470 -0.500000 -0.555570
v -0.831470 -0.250000 -0.555570
v -0.831470 -0.000000 -0.555570
v -0.831470 0.250000 -0.555570
v -0.831470 0.500000 -0.555570
v -0.831470 0.750000 -0.555570
v -0.707107 -0.750000 -0.707107
v -0.707107 -0.500000 -0.707107
v -0.707107 -0.250000 -0.707107
v -0.707107 -0.000000 -0.707107
v -0.707107 0.250000 -0.707107
v -0.707107 0.500000 -0.707107
v -0.707107 0.750000 -0.707107
v -0.555570 -0.750000 -0.831470
v -0.555570 -0.500000 -0.831470
v -0.555570 -0.250000 -0.831470
v -0.555570 -0.000000 -0.831470
v -0.555570 0.250000 -0.831470
v -0.555570 0.500000 -0.831470
v -0.555570 0.750000 -0.831470
v -0.382683 -0.750000 -0.923880
v -0.382683 -0.500000 -0.923880
v -0.382683 -0.250000 -0.923880
v -0.382683 -0.000000 -0.923880
v -0.382683 0.250000 -0.923880
v -0.382683 0.500000 -0.923880
v -0.382683 0.750000 -0.923880
v -0.195090 -0.750000 -0.980785
v -0.195090 -0.500000 -0.980785
v -0.195090 -0.250000 -0.980785
v -0.195090 -0.000000 -0.980785
v -0.195090 0.250000 -0.980785
v -0.195090 0.500000 -0.980785
v -0.195090 0.750000 -0.980785
vn -0.0980 -0.0000 -0.9952
vn -0.2903 -0.0000 -0.9569
vn -0.0000 1.0000 -0.0000
vn -0.4714 -0.0000 -0.8819
vn -0.6344 -0.0000 -0.7730
vn -0.7730 -0.0000 -0.6344
vn -0.8819 -0.0000 -0.4714
vn -0.9569 -0.0000 -0.2903
vn -0.9952 -0.0000 -0.0980
vn -0.9952 -0.0000 0.0980
vn -0.9569 -0.0000 0.2903
vn -0.8819 -0.0000 0.4714
vn -0.7730 -0.0000 0.6344
vn -0.6344 -0.0000 0.7730
vn -0.4714 -0.0000 0.8819
vn -0.2903 -0.0000 0.9569
vn 0.0980 -0.0000 -0.9952
vn -0.0000 -1.0000 -0.0000
vn 0.0980 -0.0000 0.9952
vn 0.2903 -0.0000 0.9569
vn 0.4714 -0.0000 0.8819
vn 0.6344 -0.0000 0.7730
vn 0.7730 -0.0000 0.6344
vn 0.8819 -0.0000 0.4714
vn 0.9569 -0.0000 0.2903
vn 0.9952 -0.0000 0.0980
vn 0.9952 -0.0000 -0.0980
vn 0.9569 -0.0000 -0.2903
vn 0.8819 -0.0000 -0.4714
vn 0.7730 -0.0000 -0.6344
vn 0.6344 -0.0000 -0.7730
vn 0.4714 -0.0000 -0.8819
vn 0.2903 -0.0000 -0.9569
vn -0.0980 -0.0000 0.9952
vt 0.000000 0.562500
vt 0.031250 0.500000
vt 0.031250 0.562500
vt 0.062500 0.500000
vt 0.062500 0.562500
vt 0.028269 0.341844
vt 0.471731 0.158156
vt 0.341844 0.471731
vt 0.093750 0.500000
vt 0.093750 0.562500
vt 0.125000 0.500000
vt 0.125000 0.562500
vt 0.156250 0.500000
vt 0.156250 0.562500
vt 0.187500 0.500000
vt 0.187500 0.562500
vt 0.218750 0.500000
vt 0.218750 0.562500
vt 0.250000 0.500000
vt 0.250000 0.562500
vt 0.281250 0.500000
vt 0.281250 0.562500
vt 0.312500 0.500000
vt 0.312500 0.562500
vt 0.343750 0.500000
vt 0.343750 0.562500
vt 0.375000 0.500000
vt 0.375000 0.562500
vt 0.406250 0.500000
vt 0.406250 0.562500
vt 0.437500 0.500000
vt 0.437500 0.562500
vt 0.468750 0.500000
vt 0.468750 0.562500
vt 0.968750 0.562500
vt 1.000000 0.500000
vt 1.000000 0.562500
vt 0.985388 0.296822
vt 0.514612 0.203178
vt 0.703178 0.485388
vt 0.500000 0.562500
vt 0.531250 0.500000
vt 0.531250 0.562500
vt 0.562500 0.500000
vt 0.562500 0.562500
vt 0.593750 0.500000
vt 0.593750 0.562500
vt 0.625000 0.500000
vt 0.625000 0.562500
vt 0.656250 0.500000
vt 0.656250 0.562500
vt 0.687500 0.500000
vt 0.687500 0.562500
vt 0.718750 0.500000
vt 0.718750 0.562500
vt 0.750000 0.500000
vt 0.750000 0.562500
vt 0.781250 0.500000
vt 0.781250 0.562500
vt 0.812500 0.500000
vt 0.812500 0.562500
vt 0.843750 0.500000
vt 0.843750 0.562500
vt 0.875000 0.500000
vt 0.875000 0.562500
vt 0.906250 0.500000
vt 0.906250 0.562500
vt 0.937500 0.500000
vt 0.937500 0.562500
vt 0.968750 0.500000
vt 0.296822 0.485388
vt 0.250000 0.490000
vt 0.203178 0.485388
vt 0.158156 0.471731
vt 0.116663 0.449553
vt 0.080294 0.419706
vt 0.050447 0.383337
vt 0.014612 0.296822
vt 0.010000 0.250000
vt 0.014612 0.203178
vt 0.028269 0.158156
vt 0.050447 0.116663
vt 0.080294 0.080294
vt 0.116663 0.050447
vt 0.158156 0.028269
vt 0.203178 0.014612
vt 0.250000 0.010000
vt 0.296822 0.014612
vt 0.341844 0.028269
vt 0.383337 0.050447
vt 0.419706 0.080294
vt 0.449553 0.116663
vt 0.485388 0.203178
vt 0.490000 0.250000
vt 0.485388 0.296822
vt 0.471731 0.341844
vt 0.449553 0.383337
vt 0.419706 0.419706
vt 0.383337 0.449553
vt 0.750000 0.490000
vt 0.796822 0.485388
vt 0.841844 0.471731
vt 0.883337 0.449553
vt 0.919706 0.419706
vt 0.949553 0.383337
vt 0.971731 0.341844
vt 0.990000 0.250000
vt 0.985388 0.203178
vt 0.971731 0.158156
vt 0.949553 0.116663
vt 0.919706 0.080294
vt 0.883337 0.050447
vt 0.841844 0.028269
vt 0.796822 0.014612
vt 0.750000 0.010000
vt 0.703178 0.014612
vt 0.658156 0.028269
vt 0.616663 0.050447
vt 0.580294 0.080294
vt 0.550447 0.116663
vt 0.528269 0.158156
vt 0.510000 0.250000
vt 0.514612 0.296822
vt 0.528269 0.341844
vt 0.550447 0.383337
vt 0.580294 0.419706
vt 0.616663 0.449553
vt 0.658156 0.471731
vt 0.500000 0.500000
vt 0.468750 1.000000
vt 0.500000 0.937500
vt 0.500000 1.000000
vt 0.468750 0.937500
vt 0.500000 0.875000
vt 0.468750 0.875000
vt 0.500000 0.812500
vt 0.468750 0.812500
vt 0.500000 0.750000
vt 0.468750 0.750000
vt 0.500000 0.687500
vt 0.468750 0.687500
vt 0.500000 0.625000
vt 0.468750 0.625000
vt 0.937500 1.000000
vt 0.968750 0.937500
vt 0.968750 1.000000
vt 0.937500 0.937500
vt 0.968750 0.875000
vt 0.937500 0.875000
vt 0.968750 0.812500
vt 0.937500 0.812500
vt 0.968750 0.750000
vt 0.937500 0.750000
vt 0.968750 0.687500
vt 0.937500 0.687500
vt 0.968750 0.625000
vt 0.937500 0.625000
vt 0.906250 1.000000
vt 0.906250 0.937500
vt 0.906250 0.875000
vt 0.906250 0.812500
vt 0.906250 0.750000
vt 0.906250 0.687500
vt 0.906250 0.625000
vt 0.875000 1.000000
vt 0.875000 0.937500
vt 0.875000 0.875000
vt 0.875000 0.812500
vt 0.875000 0.750000
vt 0.875000 0.687500
vt 0.875000 0.625000
vt 0.843750 1.000000
vt 0.843750 0.937500
vt 0.843750 0.875000
vt 0.843750 0.812500
vt 0.843750 0.750000
vt 0.843750 0.687500
vt 0.843750 0.625000
vt 0.812500 1.000000
vt 0.812500 0.937500
vt 0.812500 0.875000
vt 0.812500 0.812500
vt 0.812500 0.750000
vt 0.812500 0.687500
vt 0.812500 0.625000
vt 0.781250 1.000000
vt 0.781250 0.937500
vt 0.781250 0.875000
vt 0.781250 0.812500
vt 0.781250 0.750000
vt 0.781250 0.687500
vt 0.781250 0.625000
vt 0.750000 1.000000
vt 0.750000 0.937500
vt 0.750000 0.875000
vt 0.750000 0.812500
vt 0.750000 0.750000
vt 0.750000 0.687500
vt 0.750000 0.625000
vt 0.718750 1.000000
vt 0.718750 0.937500
vt 0.718750 0.875000
vt 0.718750 0.812500
vt 0.718750 0.750000
vt 0.718750 0.687500
vt 0.718750 0.625000
vt 0.687500 1.000000
vt 0.687500 0.937500
vt 0.687500 0.875000
vt 0.687500 0.812500
vt 0.687500 0.750000
vt 0.687500 0.687500
vt 0.687500 0.625000
vt 0.656250 1.000000
vt 0.656250 0.937500
vt 0.656250 0.875000
vt 0.656250 0.812500
vt 0.656250 0.750000
vt 0.656250 0.687500
vt 0.656250 0.625000
vt 0.625000 1.000000
vt 0.625000 0.937500
vt 0.625000 0.875000
vt 0.625000 0.812500
vt 0.625000 0.750000
vt 0.625000 0.687500
vt 0.625000 0.625000
vt 0.593750 1.000000
vt 0.593750 0.937500
vt 0.593750 0.875000
vt 0.593750 0.812500
vt 0.593750 0.750000
vt 0.593750 0.687500
vt 0.593750 0.625000
vt 0.562500 1.000000
vt 0.562500 0.937500
vt 0.562500 0.875000
vt 0.562500 0.812500
vt 0.562500 0.750000
vt 0.562500 0.687500
vt 0.562500 0.625000
vt 0.531250 1.000000
vt 0.531250 0.937500
vt 0.531250 0.875000
vt 0.531250 0.812500
vt 0.531250 0.750000
vt 0.531250 0.687500
vt 0.531250 0.625000
vt 1.000000 0.937500
vt 1.000000 1.000000
vt 1.000000 0.875000
vt 1.000000 0.812500
vt 1.000000 0.750000
vt 1.000000 0.687500
vt 1.000000 0.625000
vt 0.437500 1.000000
vt 0.437500 0.937500
vt 0.437500 0.875000
vt 0.437500 0.812500
vt 0.437500 0.750000
vt 0.437500 0.687500
vt 0.437500 0.625000
vt 0.406250 1.000000
vt 0.406250 0.937500
vt 0.406250 0.875000
vt 0.406250 0.812500
vt 0.406250 0.750000
vt 0.406250 0.687500
vt 0.406250 0.625000
vt 0.375000 1.000000
vt 0.375000 0.937500
vt 0.375000 0.875000
vt 0.375000 0.812500
vt 0.375000 0.750000
vt 0.375000 0.687500
vt 0.375000 0.625000
vt 0.343750 1.000000
vt 0.343750 0.937500
vt 0.343750 0.875000
vt 0.343750 0.812500
vt 0.343750 0.750000
vt 0.343750 0.687500
vt 0.343750 0.625000
vt 0.312500 1.000000
vt 0.312500 0.937500
vt 0.312500 0.875000
vt 0.312500 0.812500
vt 0.312500 0.750000
vt 0.312500 0.687500
vt 0.312500 0.625000
vt 0.281250 1.000000
vt 0.281250 0.937500
vt 0.281250 0.875000
vt 0.281250 0.812500
vt 0.281250 0.750000
vt 0.281250 0.687500
vt 0.281250 0.625000
vt 0.250000 1.000000
vt 0.250000 0.937500
vt 0.250000 0.875000
vt 0.250000 0.812500
vt 0.250000 0.750000
vt 0.250000 0.687500
vt 0.250000 0.625000
vt 0.218750 1.000000
vt 0.218750 0.937500
vt 0.218750 0.875000
vt 0.218750 0.812500
vt 0.218750 0.750000
vt 0.218750 0.687500
vt 0.218750 0.625000
vt 0.187500 1.000000
vt 0.187500 0.937500
vt 0.187500 0.875000
vt 0.187500 0.812500
vt 0.187500 0.750000
vt 0.187500 0.687500
vt 0.187500 0.625000
vt 0.156250 1.000000
vt 0.156250 0.937500
vt 0.156250 0.875000
vt 0.156250 0.812500
vt 0.156250 0.750000
vt 0.156250 0.687500
vt 0.156250 0.625000
vt 0.125000 1.000000
vt 0.125000 0.937500
vt 0.125000 0.875000
vt 0.125000 0.812500
vt 0.125000 0.750000
vt 0.125000 0.687500
vt 0.125000 0.625000
vt 0.093750 1.000000
vt 0.093750 0.937500
vt 0.093750 0.875000
vt 0.093750 0.812500
vt 0.093750 0.750000
vt 0.093750 0.687500
vt 0.093750 0.625000
vt 0.062500 1.000000
vt 0.062500 0.937500
vt 0.062500 0.875000
vt 0.062500 0.812500
vt 0.062500 0.750000
vt 0.062500 0.687500
vt 0.062500 0.625000
vt 0.031250 1.000000
vt 0.031250 0.937500
vt 0.031250 0.875000
vt 0.031250 0.812500
vt 0.031250 0.750000
vt 0.031250 0.687500
vt 0.031250 0.625000
vt 0.000000 1.000000
vt 0.000000 0.937500
vt 0.000000 0.875000
vt 0.000000 0.812500
vt 0.000000 0.750000
vt 0.000000 0.687500
vt 0.000000 0.625000
vt 0.000000 0.500000
s 1
f 65/1/1 63/2/1 282/3/1
f 282/3/2 61/4/2 275/5/2
f 54/6/3 22/7/3 6/8/3
f 275/5/4 59/9/4 268/10/4
f 268/10/5 57/11/5 261/12/5
f 261/12/6 55/13/6 254/14/6
f 254/14/7 53/15/7 247/16/7
f 247/16/8 51/17/8 240/18/8
f 240/18/9 49/19/9 233/20/9
f 233/20/10 47/21/10 226/22/10
f 226/22/11 45/23/11 219/24/11
f 219/24/12 43/25/12 212/26/12
f 212/26/13 41/27/13 205/28/13
f 205/28/14 39/29/14 198/30/14
f 198/30/15 37/31/15 191/32/15
f 191/32/16 35/33/16 184/34/16
f 72/35/17 1/36/17 65/37/17
f 15/38/18 47/39/18 63/40/18
f 177/41/19 31/42/19 170/43/19
f 170/43/20 29/44/20 163/45/20
f 163/45/21 27/46/21 156/47/21
f 156/47/22 25/48/22 149/49/22
f 149/49/23 23/50/23 142/51/23
f 142/51/24 21/52/24 135/53/24
f 135/53/25 19/54/25 128/55/25
f 128/55/26 17/56/26 121/57/26
f 121/57/27 15/58/27 114/59/27
f 114/59/28 13/60/28 107/61/28
f 107/61/29 11/62/29 100/63/29
f 100/63/30 9/64/30 93/65/30
f 93/65/31 7/66/31 86/67/31
f 86/67/32 5/68/32 79/69/32
f 79/69/33 3/70/33 72/35/33
f 6/8/3 4/71/3 2/72/3
f 2/72/3 64/73/3 62/74/3
f 62/74/3 60/75/3 58/76/3
f 58/76/3 56/77/3 54/6/3
f 54/6/3 52/78/3 50/79/3
f 50/79/3 48/80/3 46/81/3
f 46/81/3 44/82/3 42/83/3
f 42/83/3 40/84/3 38/85/3
f 38/85/3 36/86/3 34/87/3
f 34/87/3 32/88/3 30/89/3
f 30/89/3 28/90/3 26/91/3
f 26/91/3 24/92/3 22/7/3
f 22/7/3 20/93/3 18/94/3
f 18/94/3 16/95/3 14/96/3
f 14/96/3 12/97/3 10/98/3
f 10/98/3 8/99/3 6/8/3
f 6/8/3 2/72/3 62/74/3
f 62/74/3 58/76/3 54/6/3
f 54/6/3 50/79/3 46/81/3
f 46/81/3 42/83/3 38/85/3
f 38/85/3 34/87/3 30/89/3
f 30/89/3 26/91/3 22/7/3
f 22/7/3 18/94/3 14/96/3
f 14/96/3 10/98/3 6/8/3
f 6/8/3 62/74/3 54/6/3
f 54/6/3 46/81/3 38/85/3
f 38/85/3 30/89/3 22/7/3
f 22/7/3 14/96/3 6/8/3
f 63/40/18 1/100/18 3/101/18
f 3/101/18 5/102/18 7/103/18
f 7/103/18 9/104/18 11/105/18
f 11/105/18 13/106/18 15/38/18
f 15/38/18 17/107/18 19/108/18
f 19/108/18 21/109/18 23/110/18
f 23/110/18 25/111/18 27/112/18
f 27/112/18 29/113/18 31/114/18
f 31/114/18 33/115/18 35/116/18
f 35/116/18 37/117/18 39/118/18
f 39/118/18 41/119/18 43/120/18
f 43/120/18 45/121/18 47/39/18
f 47/39/18 49/122/18 51/123/18
f 51/123/18 53/124/18 55/125/18
f 55/125/18 57/126/18 59/127/18
f 59/127/18 61/128/18 63/40/18
f 63/40/18 3/101/18 7/103/18
f 7/103/18 11/105/18 15/38/18
f 15/38/18 19/108/18 23/110/18
f 23/110/18 27/112/18 31/114/18
f 31/114/18 35/116/18 39/118/18
f 39/118/18 43/120/18 47/39/18
f 47/39/18 51/123/18 55/125/18
f 55/125/18 59/127/18 63/40/18
f 63/40/18 7/103/18 15/38/18
f 15/38/18 23/110/18 31/114/18
f 31/114/18 39/118/18 47/39/18
f 47/39/18 55/125/18 63/40/18
f 184/34/34 33/129/34 177/41/34
f 36/130/34 183/131/34 34/132/34
f 190/133/34 182/134/34 183/131/34
f 189/135/34 181/136/34 182/134/34
f 188/137/34 180/138/34 181/136/34
f 187/139/34 179/140/34 180/138/34
f 186/141/34 178/142/34 179/140/34
f 185/143/34 177/41/34 178/142/34
f 6/144/33 78/145/33 4/146/33
f 85/147/33 77/148/33 78/145/33
f 84/149/33 76/150/33 77/148/33
f 83/151/33 75/152/33 76/150/33
f 82/153/33 74/154/33 75/152/33
f 81/155/33 73/156/33 74/154/33
f 80/157/33 72/35/33 73/156/33
f 8/158/32 85/147/32 6/144/32
f 92/159/32 84/149/32 85/147/32
f 91/160/32 83/151/32 84/149/32
f 90/161/32 82/153/32 83/151/32
f 89/162/32 81/155/32 82/153/32
f 88/163/32 80/157/32 81/155/32
f 87/164/32 79/69/32 80/157/32
f 10/165/31 92/159/31 8/158/31
f 99/166/31 91/160/31 92/159/31
f 98/167/31 90/161/31 91/160/31
f 97/168/31 89/162/31 90/161/31
f 96/169/31 88/163/31 89/162/31
f 95/170/31 87/164/31 88/163/31
f 94/171/31 86/67/31 87/164/31
f 12/172/30 99/166/30 10/165/30
f 106/173/30 98/167/30 99/166/30
f 105/174/30 97/168/30 98/167/30
f 104/175/30 96/169/30 97/168/30
f 103/176/30 95/170/30 96/169/30
f 102/177/30 94/171/30 95/170/30
f 101/178/30 93/65/30 94/171/30
f 14/179/29 106/173/29 12/172/29
f 113/180/29 105/174/29 106/173/29
f 112/181/29 104/175/29 105/174/29
f 111/182/29 103/176/29 104/175/29
f 110/183/29 102/177/29 103/176/29
f 109/184/29 101/178/29 102/177/29
f 108/185/29 100/63/29 101/178/29
f 16/186/28 113/180/28 14/179/28
f 120/187/28 112/181/28 113/180/28
f 119/188/28 111/182/28 112/181/28
f 118/189/28 110/183/28 111/182/28
f 117/190/28 109/184/28 110/183/28
f 116/191/28 108/185/28 109/184/28
f 115/192/28 107/61/28 108/185/28
f 18/193/27 120/187/27 16/186/27
f 127/194/27 119/188/27 120/187/27
f 126/195/27 118/189/27 119/188/27
f 125/196/27 117/190/27 118/189/27
f 124/197/27 116/191/27 117/190/27
f 123/198/27 115/192/27 116/191/27
f 122/199/27 114/59/27 115/192/27
f 20/200/26 127/194/26 18/193/26
f 134/201/26 126/195/26 127/194/26
f 133/202/26 125/196/26 126/195/26
f 132/203/26 124/197/26 125/196/26
f 131/204/26 123/198/26 124/197/26
f 130/205/26 122/199/26 123/198/26
f 129/206/26 121/57/26 122/199/26
f 22/207/25 134/201/25 20/200/25
f 141/208/25 133/202/25 134/201/25
f 140/209/25 132/203/25 133/202/25
f 139/210/25 131/204/25 132/203/25
f 138/211/25 130/205/25 131/204/25
f 137/212/25 129/206/25 130/205/25
f 136/213/25 128/55/25 129/206/25
f 24/214/24 141/208/24 22/207/24
f 148/215/24 140/209/24 141/208/24
f 147/216/24 139/210/24 140/209/24
f 146/217/24 138/211/24 139/210/24
f 145/218/24 137/212/24 138/211/24
f 144/219/24 136/213/24 137/212/24
f 143/220/24 135/53/24 136/213/24
f 26/221/23 148/215/23 24/214/23
f 155/222/23 147/216/23 148/215/23
f 154/223/23 146/217/23 147/216/23
f 153/224/23 145/218/23 146/217/23
f 152/225/23 144/219/23 145/218/23
f 151/226/23 143/220/23 144/219/23
f 150/227/23 142/51/23 143/220/23
f 28/228/22 155/222/22 26/221/22
f 162/229/22 154/223/22 155/222/22
f 161/230/22 153/224/22 154/223/22
f 160/231/22 152/225/22 153/224/22
f 159/232/22 151/226/22 152/225/22
f 158/233/22 150/227/22 151/226/22
f 157/234/22 149/49/22 150/227/22
f 30/235/21 162/229/21 28/228/21
f 169/236/21 161/230/21 162/229/21
f 168/237/21 160/231/21 161/230/21
f 167/238/21 159/232/21 160/231/21
f 166/239/21 158/233/21 159/232/21
f 165/240/21 157/234/21 158/233/21
f 164/241/21 156/47/21 157/234/21
f 32/242/20 169/236/20 30/235/20
f 176/243/20 168/237/20 169/236/20
f 175/244/20 167/238/20 168/237/20
f 174/245/20 166/239/20 167/238/20
f 173/246/20 165/240/20 166/239/20
f 172/247/20 164/241/20 165/240/20
f 171/248/20 163/45/20 164/241/20
f 34/132/19 176/243/19 32/242/19
f 183/131/19 175/244/19 176/243/19
f 182/134/19 174/245/19 175/244/19
f 181/136/19 173/246/19 174/245/19
f 180/138/19 172/247/19 173/246/19
f 179/140/19 171/248/19 172/247/19
f 178/142/19 170/43/19 171/248/19
f 4/146/17 71/249/17 2/250/17
f 78/145/17 70/251/17 71/249/17
f 77/148/17 69/252/17 70/251/17
f 76/150/17 68/253/17 69/252/17
f 75/152/17 67/254/17 68/253/17
f 74/154/17 66/255/17 67/254/17
f 73/156/17 65/37/17 66/255/17
f 38/256/16 190/133/16 36/130/16
f 197/257/16 189/135/16 190/133/16
f 196/258/16 188/137/16 189/135/16
f 195/259/16 187/139/16 188/137/16
f 194/260/16 186/141/16 187/139/16
f 193/261/16 185/143/16 186/141/16
f 192/262/16 184/34/16 185/143/16
f 40/263/15 197/257/15 38/256/15
f 204/264/15 196/258/15 197/257/15
f 203/265/15 195/259/15 196/258/15
f 202/266/15 194/260/15 195/259/15
f 201/267/15 193/261/15 194/260/15
f 200/268/15 192/262/15 193/261/15
f 199/269/15 191/32/15 192/262/15
f 42/270/14 204/264/14 40/263/14
f 211/271/14 203/265/14 204/264/14
f 210/272/14 202/266/14 203/265/14
f 209/273/14 201/267/14 202/266/14
f 208/274/14 200/268/14 201/267/14
f 207/275/14 199/269/14 200/268/14
f 206/276/14 198/30/14 199/269/14
f 44/277/13 211/271/13 42/270/13
f 218/278/13 210/272/13 211/271/13
f 217/279/13 209/273/13 210/272/13
f 216/280/13 208/274/13 209/273/13
f 215/281/13 207/275/13 208/274/13
f 214/282/13 206/276/13 207/275/13
f 213/283/13 205/28/13 206/276/13
f 46/284/12 218/278/12 44/277/12
f 225/285/12 217/279/12 218/278/12
f 224/286/12 216/280/12 217/279/12
f 223/287/12 215/281/12 216/280/12
f 222/288/12 214/282/12 215/281/12
f 221/289/12 213/283/12 214/282/12
f 220/290/12 212/26/12 213/283/12
f 48/291/11 225/285/11 46/284/11
f 232/292/11 224/286/11 225/285/11
f 231/293/11 223/287/11 224/286/11
f 230/294/11 222/288/11 223/287/11
f 229/295/11 221/289/11 222/288/11
f 228/296/11 220/290/11 221/289/11
f 227/297/11 219/24/11 220/290/11
f 50/298/10 232/292/10 48/291/10
f 239/299/10 231/293/10 232/292/10
f 238/300/10 230/294/10 231/293/10
f 237/301/10 229/295/10 230/294/10
f 236/302/10 228/296/10 229/295/10
f 235/303/10 227/297/10 228/296/10
f 234/304/10 226/22/10 227/297/10
f 52/305/9 239/299/9 50/298/9
f 246/306/9 238/300/9 239/299/9
f 245/307/9 237/301/9 238/300/9
f 244/308/9 236/302/9 237/301/9
f 243/309/9 235/303/9 236/302/9
f 242/310/9 234/304/9 235/303/9
f 241/311/9 233/20/9 234/304/9
f 54/312/8 246/306/8 52/305/8
f 253/313/8 245/307/8 246/306/8
f 252/314/8 244/308/8 245/307/8
f 251/315/8 243/309/8 244/308/8
f 250/316/8 242/310/8 243/309/8
f 249/317/8 241/311/8 242/310/8
f 248/318/8 240/18/8 241/311/8
f 56/319/7 253/313/7 54/312/7
f 260/320/7 252/314/7 253/313/7
f 259/321/7 251/315/7 252/314/7
f 258/322/7 250/316/7 251/315/7
f 257/323/7 249/317/7 250/316/7
f 256/324/7 248/318/7 249/317/7
f 255/325/7 247/16/7 248/318/7
f 58/326/6 260/320/6 56/319/6
f 267/327/6 259/321/6 260/320/6
f 266/328/6 258/322/6 259/321/6
f 265/329/6 257/323/6 258/322/6
f 264/330/6 256/324/6 257/323/6
f 263/331/6 255/325/6 256/324/6
f 262/332/6 254/14/6 255/325/6
f 60/333/5 267/327/5 58/326/5
f 274/334/5 266/328/5 267/327/5
f 273/335/5 265/329/5 266/328/5
f 272/336/5 264/330/5 265/329/5
f 271/337/5 263/331/5 264/330/5
f 270/338/5 262/332/5 263/331/5
f 269/339/5 261/12/5 262/332/5
f 62/340/4 274/334/4 60/333/4
f 281/341/4 273/335/4 274/334/4
f 280/342/4 272/336/4 273/335/4
f 279/343/4 271/337/4 272/336/4
f 278/344/4 270/338/4 271/337/4
f 277/345/4 269/339/4 270/338/4
f 276/346/4 268/10/4 269/339/4
f 64/347/2 281/341/2 62/340/2
f 288/348/2 280/342/2 281/341/2
f 287/349/2 279/343/2 280/342/2
f 286/350/2 278/344/2 279/343/2
f 285/351/2 277/345/2 278/344/2
f 284/352/2 276/346/2 277/345/2
f 283/353/2 275/5/2 276/346/2
f 2/354/1 288/348/1 64/347/1
f 71/355/1 287/349/1 288/348/1
f 70/356/1 286/350/1 287/349/1
f 69/357/1 285/351/1 286/350/1
f 68/358/1 284/352/1 285/351/1
f 67/359/1 283/353/1 284/352/1
f 66/360/1 282/3/1 283/353/1
f 65/1/1 1/361/1 63/2/1
f 282/3/2 63/2/2 61/4/2
f 54/6/3 38/85/3 22/7/3
f 275/5/4 61/4/4 59/9/4
f 268/10/5 59/9/5 57/11/5
f 261/12/6 57/11/6 55/13/6
f 254/14/7 55/13/7 53/15/7
f 247/16/8 53/15/8 51/17/8
f 240/18/9 51/17/9 49/19/9
f 233/20/10 49/19/10 47/21/10
f 226/22/11 47/21/11 45/23/11
f 219/24/12 45/23/12 43/25/12
f 212/26/13 43/25/13 41/27/13
f 205/28/14 41/27/14 39/29/14
f 198/30/15 39/29/15 37/31/15
f 191/32/16 37/31/16 35/33/16
f 72/35/17 3/70/17 1/36/17
f 15/38/18 31/114/18 47/39/18
f 177/41/19 33/129/19 31/42/19
f 170/43/20 31/42/20 29/44/20
f 163/45/21 29/44/21 27/46/21
f 156/47/22 27/46/22 25/48/22
f 149/49/23 25/48/23 23/50/23
f 142/51/24 23/50/24 21/52/24
f 135/53/25 21/52/25 19/54/25
f 128/55/26 19/54/26 17/56/26
f 121/57/27 17/56/27 15/58/27
f 114/59/28 15/58/28 13/60/28
f 107/61/29 13/60/29 11/62/29
f 100/63/30 11/62/30 9/64/30
f 93/65/31 9/64/31 7/66/31
f 86/67/32 7/66/32 5/68/32
f 79/69/33 5/68/33 3/70/33
f 184/34/34 35/33/34 33/129/34
f 36/130/34 190/133/34 183/131/34
f 190/133/34 189/135/34 182/134/34
f 189/135/34 188/137/34 181/136/34
f 188/137/34 187/139/34 180/138/34
f 187/139/34 186/141/34 179/140/34
f 186/141/34 185/143/34 178/142/34
f 185/143/34 184/34/34 177/41/34
f 6/144/33 85/147/33 78/145/33
f 85/147/33 84/149/33 77/148/33
f 84/149/33 83/151/33 76/150/33
f 83/151/33 82/153/33 75/152/33
f 82/153/33 81/155/33 74/154/33
f 81/155/33 80/157/33 73/156/33
f 80/157/33 79/69/33 72/35/33
f 8/158/32 92/159/32 85/147/32
f 92/159/32 91/160/32 84/149/32
f 91/160/32 90/161/32 83/151/32
f 90/161/32 89/162/32 82/153/32
f 89/162/32 88/163/32 81/155/32
f 88/163/32 87/164/32 80/157/32
f 87/164/32 86/67/32 79/69/32
f 10/165/31 99/166/31 92/159/31
f 99/166/31 98/167/31 91/160/31
f 98/167/31 97/168/31 90/161/31
f 97/168/31 96/169/31 89/162/31
f 96/169/31 95/170/31 88/163/31
f 95/170/31 94/171/31 87/164/31
f 94/171/31 93/65/31 86/67/31
f 12/172/30 106/173/30 99/166/30
f 106/173/30 105/174/30 98/167/30
f 105/174/30 104/175/30 97/168/30
f 104/175/30 103/176/30 96/169/30
f 103/176/30 102/177/30 95/170/30
f 102/177/30 101/178/30 94/171/30
f 101/178/30 100/63/30 93/65/30
f 14/179/29 113/180/29 106/173/29
f 113/180/29 112/181/29 105/174/29
f 112/181/29 111/182/29 104/175/29
f 111/182/29 110/183/29 103/176/29
f 110/183/29 109/184/29 102/177/29
f 109/184/29 108/185/29 101/178/29
f 108/185/29 107/61/29 100/63/29
f 16/186/28 120/187/28 113/180/28
f 120/187/28 119/188/28 112/181/28
f 119/188/28 118/189/28 111/182/28
f 118/189/28 117/190/28 110/183/28
f 117/190/28 116/191/28 109/184/28
f 116/191/28 115/192/28 108/185/28
f 115/192/28 114/59/28 107/61/28
f 18/193/27 127/194/27 120/187/27
f 127/194/27 126/195/27 119/188/27
f 126/195/27 125/196/27 118/189/27
f 125/196/27 124/197/27 117/190/27
f 124/197/27 123/198/27 116/191/27
f 123/198/27 122/199/27 115/192/27
f 122/199/27 121/57/27 114/59/27
f 20/200/26 134/201/26 127/194/26
f 134/201/26 133/202/26 126/195/26
f 133/202/26 132/203/26 125/196/26
f 132/203/26 131/204/26 124/197/26
f 131/204/26 130/205/26 123/198/26
f 130/205/26 129/206/26 122/199/26
f 129/206/26 128/55/26 121/57/26
f 22/207/25 141/208/25 134/201/25
f 141/208/25 140/209/25 133/202/25
f 140/209/25 139/210/25 132/203/25
f 139/210/25 138/211/25 131/204/25
f 138/211/25 137/212/25 130/205/25
f 137/212/25 136/213/25 129/206/25
f 136/213/25 135/53/25 128/55/25
f 24/214/24 148/215/24 141/208/24
f 148/215/24 147/216/24 140/209/24
f 147/216/24 146/217/24 139/210/24
f 146/217/24 145/218/24 138/211/24
f 145/218/24 144/219/24 137/212/24
f 144/219/24 143/220/24 136/213/24
f 143/220/24 142/51/24 135/53/24
f 26/221/23 155/222/23 148/215/23
f 155/222/23 154/223/23 147/216/23
f 154/223/23 153/224/23 146/217/23
f 153/224/23 152/225/23 145/218/23
f 152/225/23 151/226/23 144/219/23
f 151/226/23 150/227/23 143/220/23
f 150/227/23 149/49/23 142/51/23
f 28/228/22 162/229/22 155/222/22
f 162/229/22 161/230/22 154/223/22
f 161/230/22 160/231/22 153/224/22
f 160/231/22 159/232/22 152/225/22
f 159/232/22 158/233/22 151/226/22
f 158/233/22 157/234/22 150/227/22
f 157/234/22 156/47/22 149/49/22
f 30/235/21 169/236/21 162/229/21
f 169/236/21 168/237/21 161/230/21
f 168/237/21 167/238/21 160/231/21
f 167/238/21 166/239/21 159/232/21
f 166/239/21 165/240/21 158/233/21
f 165/240/21 164/241/21 157/234/21
f 164/241/21 163/45/21 156/47/21
f 32/242/20 176/243/20 169/236/20
f 176/243/20 175/244/20 168/237/20
f 175/244/20 174/245/20 167/238/20
f 174/245/20 173/246/20 166/239/20
f 173/246/20 172/247/20 165/240/20
f 172/247/20 171/248/20 164/241/20
f 171/248/20 170/43/20 163/45/20
f 34/132/19 183/131/19 176/243/19
f 183/131/19 182/134/19 175/244/19
f 182/134/19 181/136/19 174/245/19
f 181/136/19 180/138/19 173/246/19
f 180/138/19 179/140/19 172/247/19
f 179/140/19 178/142/19 171/248/19
f 178/142/19 177/41/19 170/43/19
f 4/146/17 78/145/17 71/249/17
f 78/145/17 77/148/17 70/251/17
f 77/148/17 76/150/17 69/252/17
f 76/150/17 75/152/17 68/253/17
f 75/152/17 74/154/17 67/254/17
f 74/154/17 73/156/17 66/255/17
f 73/156/17 72/35/17 65/37/17
f 38/256/16 197/257/16 190/133/16
f 197/257/16 196/258/16 189/135/16
f 196/258/16 195/259/16 188/137/16
f 195/259/16 194/260/16 187/139/16
f 194/260/16 193/261/16 186/141/16
f 193/261/16 192/262/16 185/143/16
f 192/262/16 191/32/16 184/34/16
f 40/263/15 204/264/15 197/257/15
f 204/264/15 203/265/15 196/258/15
f 203/265/15 202/266/15 195/259/15
f 202/266/15 201/267/15 194/260/15
f 201/267/15 200/268/15 193/261/15
f 200/268/15 199/269/15 192/262/15
f 199/269/15 198/30/15 191/32/15
f 42/270/14 211/271/14 204/264/14
f 211/271/14 210/272/14 203/265/14
f 210/272/14 209/273/14 202/266/14
f 209/273/14 208/274/14 201/267/14
f 208/274/14 207/275/14 200/268/14
f 207/275/14 206/276/14 199/269/14
f 206/276/14 205/28/14 198/30/14
f 44/277/13 218/278/13 211/271/13
f 218/278/13 217/279/13 210/272/13
f 217/279/13 216/280/13 209/273/13
f 216/280/13 215/281/13 208/274/13
f 215/281/13 214/282/13 207/275/13
f 214/282/13 213/283/13 206/276/13
f 213/283/13 212/26/13 205/28/13
f 46/284/12 225/285/12 218/278/12
f 225/285/12 224/286/12 217/279/12
f 224/286/12 223/287/12 216/280/12
f 223/287/12 222/288/12 215/281/12
f 222/288/12 221/289/12 214/282/12
f 221/289/12 220/290/12 213/283/12
f 220/290/12 219/24/12 212/26/12
f 48/291/11 232/292/11 225/285/11
f 232/292/11 231/293/11 224/286/11
f 231/293/11 230/294/11 223/287/11
f 230/294/11 229/295/11 222/288/11
f 229/295/11 228/296/11 221/289/11
f 228/296/11 227/297/11 220/290/11
f 227/297/11 226/22/11 219/24/11
f 50/298/10 239/299/10 232/292/10
f 239/299/10 238/300/10 231/293/10
f 238/300/10 237/301/10 230/294/10
f 237/301/10 236/302/10 229/295/10
f 236/302/10 235/303/10 228/296/10
f 235/303/10 234/304/10 227/297/10
f 234/304/10 233/20/10 226/22/10
f 52/305/9 246/306/9 239/299/9
f 246/306/9 245/307/9 238/300/9
f 245/307/9 244/308/9 237/301/9
f 244/308/9 243/309/9 236/302/9
f 243/309/9 242/310/9 235/303/9
f 242/310/9 241/311/9 234/304/9
f 241/311/9 240/18/9 233/20/9
f 54/312/8 253/313/8 246/306/8
f 253/313/8 252/314/8 245/307/8
f 252/314/8 251/315/8 244/308/8
f 251/315/8 250/316/8 243/309/8
f 250/316/8 249/317/8 242/310/8
f 249/317/8 248/318/8 241/311/8
f 248/318/8 247/16/8 240/18/8
f 56/319/7 260/320/7 253/313/7
f 260/320/7 259/321/7 252/314/7
f 259/321/7 258/322/7 251/315/7
f 258/322/7 257/323/7 250/316/7
f 257/323/7 256/324/7 249/317/7
f 256/324/7 255/325/7 248/318/7
f 255/325/7 254/14/7 247/16/7
f 58/326/6 267/327/6 260/320/6
f 267/327/6 266/328/6 259/321/6
f 266/328/6 265/329/6 258/322/6
f 265/329/6 264/330/6 257/323/6
f 264/330/6 263/331/6 256/324/6
f 263/331/6 262/332/6 255/325/6
f 262/332/6 261/12/6 254/14/6
f 60/333/5 274/334/5 267/327/5
f 274/334/5 273/335/5 266/328/5
f 273/335/5 272/336/5 265/329/5
f 272/336/5 271/337/5 264/330/5
f 271/337/5 270/338/5 263/331/5
f 270/338/5 269/339/5 262/332/5
f 269/339/5 268/10/5 261/12/5
f 62/340/4 281/341/4 274/334/4
f 281/341/4 280/342/4 273/335/4
f 280/342/4 279/343/4 272/336/4
f 279/343/4 278/344/4 271/337/4
f 278/344/4 277/345/4 270/338/4
f 277/345/4 276/346/4 269/339/4
f 276/346/4 275/5/4 268/10/4
f 64/347/2 288/348/2 281/341/2
f 288/348/2 287/349/2 280/342/2
f 287/349/2 286/350/2 279/343/2
f 286/350/2 285/351/2 278/344/2
f 285/351/2 284/352/2 277/345/2
f 284/352/2 283/353/2 276/346/2
f 283/353/2 282/3/2 275/5/2
f 2/354/1 71/355/1 288/348/1
f 71/355/1 70/356/1 287/349/1
f 70/356/1 69/357/1 286/350/1
f 69/357/1 68/358/1 285/351/1
f 68/358/1 67/359/1 284/352/1
f 67/359/1 66/360/1 283/353/1
f 66/360/1 65/1/1 282/3/1
