# Blender 5.0.1
# www.blender.org
o Skybox
v -1.000000 -1.000000 1.000000
v -1.000000 1.000000 1.000000
v -1.000000 -1.000000 -1.000000
v -1.000000 1.000000 -1.000000
v 1.000000 -1.000000 1.000000
v 1.000000 1.000000 1.000000
v 1.000000 -1.000000 -1.000000
v 1.000000 1.000000 -1.000000
vn 1.0000 -0.0000 -0.0000
vn -0.0000 -0.0000 1.0000
vn -1.0000 -0.0000 -0.0000
vn -0.0000 -0.0000 -1.0000
vn -0.0000 1.0000 -0.0000
vn -0.0000 -1.0000 -0.0000
vt 1.000000 0.000000
vt 0.000000 1.000000
vt 0.000000 0.000000
vt 1.000000 1.000000
s 0
usemtl 
f 3/1/1 2/2/1 1/3/1
f 7/1/2 4/2/2 3/3/2
f 5/3/3 8/4/3 7/1/3
f 1/3/4 6/4/4 5/1/4
f 1/3/5 7/4/5 3/2/5
f 6/1/6 4/2/6 8/4/6
f 3/1/1 4/4/1 2/2/1
f 7/1/2 8/4/2 4/2/2
f 5/3/3 6/2/3 8/4/3
f 1/3/4 2/2/4 6/4/4
f 1/3/5 5/1/5 7/4/5
f 6/1/6 2/3/6 4/2/6
